<!-- @formatter:off -->
<svg xmlns="http://www.w3.org/2000/svg" xmlns:xlink="http://www.w3.org/1999/xlink">
  <defs>
    <svg id="stone-white" fill="none" version="1.1" viewBox="0 0 33 33" xmlns="http://www.w3.org/2000/svg">
      <defs>
        <filter id="filter0_d_9_287" x="0" y="0" width="33" height="33" color-interpolation-filters="sRGB" filterUnits="userSpaceOnUse">
          <feFlood flood-opacity="0" result="BackgroundImageFix"/>
          <feColorMatrix in="SourceAlpha" result="hardAlpha" values="0 0 0 0 0 0 0 0 0 0 0 0 0 0 0 0 0 0 127 0"/>
          <feOffset dy="2"/>
          <feGaussianBlur stdDeviation="2"/>
          <feComposite in2="hardAlpha" operator="out"/>
          <feColorMatrix values="0 0 0 0 0.895833 0 0 0 0 0.895833 0 0 0 0 0.895833 0 0 0 0.2 0"/>
          <feBlend in2="BackgroundImageFix" result="effect1_dropShadow_9_287"/>
          <feBlend in="SourceGraphic" in2="effect1_dropShadow_9_287" result="shape"/>
        </filter>
        <radialGradient id="paint0_radial_9_287" cx="0" cy="0" r="1" gradientTransform="matrix(17,18,-18,17,11.987,10.991)" gradientUnits="userSpaceOnUse">
          <stop stop-color="#FEFEFE" offset=".14062"/>
          <stop stop-color="#E0E0E0" offset="1"/>
        </radialGradient>
      </defs>
      <circle transform="matrix(1.1989 0 0 1.1989 -3.2478 -3.2864)" cx="16.487" cy="16.491" r="12.5" fill="url(#paint0_radial_9_287)" filter="url(#filter0_d_9_287)"/>
    </svg>
    <svg id="stone-black" fill="none" version="1.1" viewBox="0 0 33 33" xmlns="http://www.w3.org/2000/svg">
      <defs>
        <filter id="filter0_d_9_286" x="0" y="0" width="33" height="33" color-interpolation-filters="sRGB" filterUnits="userSpaceOnUse">
          <feFlood flood-opacity="0" result="BackgroundImageFix"/>
          <feColorMatrix in="SourceAlpha" result="hardAlpha" values="0 0 0 0 0 0 0 0 0 0 0 0 0 0 0 0 0 0 127 0"/>
          <feOffset dy="2"/>
          <feGaussianBlur stdDeviation="2"/>
          <feComposite in2="hardAlpha" operator="out"/>
          <feColorMatrix values="0 0 0 0 0.895833 0 0 0 0 0.895833 0 0 0 0 0.895833 0 0 0 0.2 0"/>
          <feBlend in2="BackgroundImageFix" result="effect1_dropShadow_9_287"/>
          <feBlend in="SourceGraphic" in2="effect1_dropShadow_9_287" result="shape"/>
        </filter>
        <radialGradient id="paint0_radial_9_286" cx="0" cy="0" r="1" gradientTransform="matrix(17,18,-18,17,11.987,10.991)" gradientUnits="userSpaceOnUse">
          <stop stop-color="#777" offset="0"/>
          <stop stop-color="#4B4B4B" offset=".39519"/>
          <stop stop-color="#292929" offset="1"/>
        </radialGradient>
      </defs>
      <circle transform="matrix(1.1989 0 0 1.1989 -3.2478 -3.2864)" cx="16.487" cy="16.491" r="12.5" fill="url(#paint0_radial_9_286)" filter="url(#filter0_d_9_286)"/>
    </svg>
    <svg id="robot" version="1.1" viewBox="0 0 512 512" xmlns="http://www.w3.org/2000/svg">
      <path d="m377.04 416.66h-242.08c-43.572 0-79.229-35.652-79.229-79.229v-118.84c0-43.572 35.652-79.223 79.229-79.223h242.08c43.572 0 79.229 35.652 79.229 79.223v118.84c-6e-3 43.572-35.657 79.223-79.229 79.223z" fill="#6dc9f7"/>
      <path d="m134.96 377.05c-21.846 0-39.612-17.771-39.612-39.612v-118.84c0-21.846 17.771-39.612 39.612-39.612h242.08c21.846 0 39.612 17.771 39.612 39.612v118.84c0 21.846-17.771 39.612-39.612 39.612z" fill="#ffd7e5"/>
      <path fill="#0089ef" d="m55.734 232.41v87.939c-24.296 0-43.969-19.673-43.969-43.969s19.673-43.969 43.969-43.969z"/>
      <path fill="#0089ef" d="m500.24 276.38c0 24.296-19.673 43.969-43.969 43.969v-87.939c24.29 0 43.969 19.673 43.969 43.969z"/>
      <path fill="#0089ef" d="m256 95.4c-24.296 0-43.969 19.673-43.969 43.969h87.945c0-24.296-19.679-43.969-43.975-43.969z"/>
      <path d="m175.73 231.52c-13.615 0-24.758 11.141-24.758 24.756s11.143 24.758 24.758 24.758 24.756-11.143 24.756-24.758-11.135-24.756-24.756-24.756zm160.55 2e-3a24.757 24.757 0 0 0-24.756 24.758 24.757 24.757 0 0 0 24.756 24.756 24.757 24.757 0 0 0 24.758-24.756 24.757 24.757 0 0 0-24.758-24.758zm-105.57 75.627c-1.1051 0.0359-2.2115 0.3899-3.1777 1.0859-2.5824 1.8618-3.1646 5.4646-1.3027 8.0469 0.40926 0.57066 10.312 13.99 29.766 13.99 18.959 0 29.259-13.316 29.686-13.881 1.9137-2.5247 1.4176-6.1042-1.0898-8.0352-2.4959-1.9137-6.1162-1.4644-8.0644 1.043-0.29974 0.38044-7.441 9.3438-20.525 9.3438-13.327 0-20.099-8.7848-20.445-9.2344-1.1672-1.596-3.0038-2.4192-4.8457-2.3594z" fill="#3a2c60"/>
      <path d="m462.03 227v-8.41c0-46.863-38.125-84.993-84.988-84.993h-71.672c-2.6515-22.821-20.786-40.955-43.606-43.606-5.2189-0.52208-6.2866-0.58587-11.529 0-22.535 2.5184-40.955 20.792-43.606 43.606h-71.667c-46.869 0-84.993 38.125-84.993 84.993v8.41c-24.717 2.8706-43.969 23.898-43.969 49.376 0 25.472 19.252 46.5 43.969 49.371v11.684c0 46.863 38.125 84.993 84.993 84.993h242.08c46.863 0 84.988-38.125 84.988-84.993v-11.684c24.717-2.8706 43.969-23.898 43.969-49.371 0-25.478-19.252-46.506-43.969-49.376zm-206.03-125.83c19.103 0 34.983 14.099 37.773 32.441h-75.54c2.7841-18.342 18.665-32.441 37.767-32.441zm-238.47 175.22c0-19.108 14.099-34.983 32.441-37.773v75.546c-18.342-2.7956-32.441-18.67-32.441-37.773zm432.97 61.055c0 40.505-32.954 73.465-73.459 73.465h-242.08c-40.505 0-73.465-32.954-73.465-73.465v-118.84c0-40.505 32.96-73.465 73.465-73.465h242.08c40.505 0 73.459 32.954 73.459 73.465v101.75zm11.528-23.287v-75.546c18.342 2.7899 32.441 18.665 32.441 37.773s-14.099 34.983-32.441 37.773z" fill="#3a2c60"/>
    </svg>
    <svg id="human" version="1.1" viewBox="0 0 512 512" xmlns="http://www.w3.org/2000/svg">
      <path d="m381.88 403.54a24.197 24.197 0 0 0 13.467 4.0984 24.59 24.59 0 0 0 24.59-24.59 24.221 24.221 0 0 0-2.623-10.82 24.221 24.221 0 0 0 10.82 2.623 24.475 24.475 0 0 0 18.033-41.147 24.402 24.402 0 0 0 15-42.377 24.59 24.59 0 0 0 16.148-23.033 26.172 26.172 0 0 0-0.7377-5.7377 24.434 24.434 0 0 0-2.1311-39.344 24.5 24.5 0 0 0-5.082-43.524 24.484 24.484 0 0 0-16.639-42.541c-0.4918 0-1.0656 0.16393-1.5574 0.16393a23.664 23.664 0 0 0 1.5574-8.3606 24.59 24.59 0 0 0-16.557-23.115 9.0164 9.0164 0 0 0 0.16394-1.4754 24.59 24.59 0 0 0-16.557-23.115 9.0164 9.0164 0 0 0 0.16394-1.4754 24.59 24.59 0 0 0-24.59-24.59 23.664 23.664 0 0 0-8.3606 1.5574c0-0.4918 0.16393-1.0656 0.16393-1.5574a24.59 24.59 0 0 0-24.59-24.59 24.115 24.115 0 0 0-12.049 3.2787 24.451 24.451 0 0 0-20.738-11.475 24.115 24.115 0 0 0-12.049 3.2787 24.369 24.369 0 0 0-38.688-3.5246 24.5 24.5 0 0 0-46.065 0 24.369 24.369 0 0 0-38.688 3.5246 24.115 24.115 0 0 0-12.049-3.2787 24.451 24.451 0 0 0-20.738 11.475 24.115 24.115 0 0 0-12.049-3.2787 24.59 24.59 0 0 0-24.59 24.59c0 0.4918 0.16393 1.0656 0.16393 1.5574a23.664 23.664 0 0 0-8.3606-1.5574 24.59 24.59 0 0 0-24.59 24.59 9.0164 9.0164 0 0 0 0.16393 1.4754 24.59 24.59 0 0 0-16.557 23.115 9.0164 9.0164 0 0 0 0.16393 1.4754 24.59 24.59 0 0 0-16.557 23.115 23.664 23.664 0 0 0 1.5574 8.3606c-0.4918 0-1.0656-0.16393-1.5574-0.16393a24.484 24.484 0 0 0-16.639 42.541 24.5 24.5 0 0 0-5.082 43.524 24.434 24.434 0 0 0-2.1311 39.344 26.172 26.172 0 0 0-0.7377 5.7377 24.59 24.59 0 0 0 16.147 23.033 24.402 24.402 0 0 0 15 42.377 24.443 24.443 0 0 0 28.852 38.524 24.221 24.221 0 0 0-2.6229 10.82 24.59 24.59 0 0 0 24.59 24.59 24.197 24.197 0 0 0 13.467-4.0984z" fill="#182f3a"/>
      <path d="m122.48 406.87a25.213 25.213 0 0 0 5-1.8524v0.0574a23.77 23.77 0 0 0 2.6721-1.5082h251.73a24.197 24.197 0 0 0 13.467 4.0738 24.59 24.59 0 0 0 24.59-24.59 24.221 24.221 0 0 0-2.623-10.82 24.221 24.221 0 0 0 10.82 2.623 24.475 24.475 0 0 0 18.033-41.147 24.402 24.402 0 0 0 15-42.377 24.59 24.59 0 0 0 16.148-23.033 26.172 26.172 0 0 0-0.7377-5.7377 24.434 24.434 0 0 0-2.1311-39.344 24.5 24.5 0 0 0-5.082-43.524 24.484 24.484 0 0 0-16.639-42.541c-0.4918 0-1.0656 0.16393-1.5574 0.16393a23.664 23.664 0 0 0 1.5574-8.3606 24.59 24.59 0 0 0-16.557-23.115 9.0164 9.0164 0 0 0 0.16394-1.4754 24.156 24.156 0 0 0-6.2869-16.205c-0.63934-0.04918-1.2541-0.18852-1.9098-0.18852a23.664 23.664 0 0 0-8.3606 1.5574c0-0.4918 0.16394-1.0656 0.16394-1.5574a24.59 24.59 0 0 0-24.59-24.59 24.115 24.115 0 0 0-12.049 3.2787 24.451 24.451 0 0 0-20.738-11.475 24.115 24.115 0 0 0-12.049 3.2787 24.369 24.369 0 0 0-38.688-3.5246 24.5 24.5 0 0 0-46.065 0 24.369 24.369 0 0 0-38.688 3.5246 24.115 24.115 0 0 0-12.049-3.2787 24.451 24.451 0 0 0-20.738 11.475 24.115 24.115 0 0 0-12.049-3.2787 24.59 24.59 0 0 0-24.59 24.59c0 0.4918 0.16394 1.0656 0.16394 1.5574a23.664 23.664 0 0 0-8.3606-1.5574 24.59 24.59 0 0 0-24.59 24.59 9.0164 9.0164 0 0 0 0.16393 1.4754 24.59 24.59 0 0 0-16.557 23.115 9.0164 9.0164 0 0 0 0.16393 1.4754 24.59 24.59 0 0 0-16.557 23.115 23.664 23.664 0 0 0 1.5574 8.3606c-0.4918 0-1.0656-0.16393-1.5574-0.16393a24.484 24.484 0 0 0-16.639 42.541 24.5 24.5 0 0 0-5.082 43.524 24.434 24.434 0 0 0-2.1311 39.344 26.172 26.172 0 0 0-0.7377 5.7377 24.59 24.59 0 0 0 16.147 23.033 24.402 24.402 0 0 0 15 42.377 25 25 0 0 0-4.0983 6.1967 25.459 25.459 0 0 0-1.5 4.0492c-0.09016 0.31967-0.21311 0.63114-0.28688 0.95901a23.229 23.229 0 0 0-0.67213 5.3524 24.59 24.59 0 0 0 24.59 24.59 23.246 23.246 0 0 0 5.3606-0.66393z" fill="#203a49"/>
      <path d="m387.15 292.89v73.77a131.15 131.15 0 0 1-131.15 131.15 131.15 131.15 0 0 1-131.15-131.15v-73.77a122.95 122.95 0 0 1 122.95-122.95h16.393a122.95 122.95 0 0 1 122.95 122.95z" fill="#996945"/>
      <path d="m264.2 169.94h-16.393a122.44 122.44 0 0 0-78.352 28.205 122.44 122.44 0 0 0-28.205 78.352v73.77a131.1 131.1 0 0 0 215.29 100.54 130.58 130.58 0 0 0 30.606-84.147v-73.77a122.95 122.95 0 0 0-122.95-122.95z" fill="#b07a4e"/>
      <path d="m387.15 292.89h8.1967a32.787 32.787 0 0 1 32.787 32.787 32.787 32.787 0 0 1-32.787 32.787h-8.1967" fill="#996945"/>
      <path d="m124.85 292.89h-8.1967a32.787 32.787 0 0 0-32.787 32.787 32.787 32.787 0 0 0 32.787 32.787h8.1967" fill="#996945"/>
      <path d="m411.74 260.1v37.213a32.697 32.697 0 0 0-16.393-4.4262h-8.1967a122.99 122.99 0 0 0-122.95-122.95h-16.393a123.14 123.14 0 0 0-122.95 122.95h-8.1967a32.697 32.697 0 0 0-16.393 4.4262v-37.213a155.74 155.74 0 0 1 311.47 0z" fill="#eeab45"/>
      <path d="m256 140.92a155.74 155.74 0 0 0-155.74 155.74v0.65574a32.697 32.697 0 0 1 16.393-4.4262h8.1967a123.14 123.14 0 0 1 122.95-122.95h16.393a122.99 122.99 0 0 1 122.95 122.95h8.1967a32.697 32.697 0 0 1 16.393 4.4262v-0.65574a155.88 155.88 0 0 0-155.74-155.74z" fill="#f2c14e"/>
      <path d="m362.55 317.48a40.983 40.983 0 0 1-40.983 40.983 40.983 40.983 0 0 1-40.983-40.983 40.983 40.983 0 0 1 40.983-40.983 40.983 40.983 0 0 1 40.983 40.983z" fill="#cecece"/>
      <path d="m321.57 276.49a40.811 40.811 0 0 0-32.688 65.475 40.811 40.811 0 0 0 57.18-57.18 40.647 40.647 0 0 0-24.492-8.2951z" fill="#f2f2f2"/>
      <path d="m231.41 317.48a40.983 40.983 0 0 1-40.983 40.983 40.983 40.983 0 0 1-40.983-40.983 40.983 40.983 0 0 1 40.983-40.983 40.983 40.983 0 0 1 40.983 40.983z" fill="#cecece"/>
      <path d="m190.43 276.49a40.647 40.647 0 0 0-24.492 8.2951 40.811 40.811 0 0 0 57.18 57.18 40.811 40.811 0 0 0-32.688-65.475z" fill="#f2f2f2"/>
      <path d="m256 391.25a27.803 27.803 0 0 1-19.795-8.1967l-10.59-10.598 11.59-11.59 10.598 10.598a11.861 11.861 0 0 0 16.393 0l10.598-10.598 11.59 11.59-10.598 10.598a27.77 27.77 0 0 1-19.787 8.1967z" fill="#84583a"/>
      <path d="m215.01 301.08a16.393 16.393 0 0 1-16.393 16.393 16.393 16.393 0 0 1-16.393-16.393 16.393 16.393 0 0 1 16.393-16.393 16.393 16.393 0 0 1 16.393 16.393z" fill="#707070"/>
      <path d="m337.96 333.87a16.393 16.393 0 0 1-16.393 16.393 16.393 16.393 0 0 1-16.393-16.393 16.393 16.393 0 0 1 16.393-16.393 16.393 16.393 0 0 1 16.393 16.393z" fill="#707070"/>
      <path d="m224.59 248.25-2.7541-4.0984a37.746 37.746 0 0 0-62.82 0l-2.7541 4.0984-13.639-9.0983 2.7541-4.0984a54.147 54.147 0 0 1 90.098 0l2.7541 4.0984z" fill="#84583a"/>
      <path d="m321.57 268.3a54.033 54.033 0 0 1-45.082-24.106l-2.7541-4.0984 13.639-9.0983 2.7541 4.0984a37.746 37.746 0 0 0 62.82 0l2.7541-4.0984 13.639 9.0983-2.7541 4.0984a54.033 54.033 0 0 1-45.016 24.106z" fill="#84583a"/>
      <path d="m256 399.44 15.574 8.1967a39.344 39.344 0 0 1 33.606-24.59c22.631 0 40.984 25.688 40.984 57.377s-18.352 57.377-40.984 57.377a39.344 39.344 0 0 1-33.606-24.59" fill="#b07a4e"/>
      <path d="m321.57 440.43a16.393 24.59 0 0 1-16.393 24.59 16.393 24.59 0 0 1-16.393-24.59 16.393 24.59 0 0 1 16.393-24.59 16.393 24.59 0 0 1 16.393 24.59z" fill="#84583a"/>
      <path d="m305.18 506a47.311 47.311 0 0 1-40.983-29.131l14.672-7.3114a31.5 31.5 0 0 0 26.311 20.049c17.77 0 32.787-22.525 32.787-49.18 0-26.656-15.016-49.18-32.787-49.18a31.492 31.492 0 0 0-26.295 20.049 8.1967 8.1967 0 0 1-11.164 3.5984l-15.574-8.1967 7.6393-14.508 8.5902 4.5328a44.852 44.852 0 0 1 36.803-21.869c27.123 0 49.18 29.418 49.18 65.574s-22.057 65.574-49.18 65.574z" fill="#84583a"/>
    </svg>
    <svg id="level-easy" version="1.1" viewBox="0 0 512 512" xmlns="http://www.w3.org/2000/svg">
      <path d="m481 356.99v-210.78c0-10.87-5.915-20.915-15.519-26.351l-193.96-109.79c-9.6026-5.4355-21.434-5.4355-31.036 0l-193.96 109.79c-9.6026 5.4355-15.519 15.479-15.519 26.351v210.78c0 10.87 5.915 20.915 15.519 26.351l193.96 109.79c9.6026 5.4355 21.434 5.4355 31.036 0l193.96-109.79c9.6016-5.4355 15.518-15.48 15.518-26.352z" fill="#567df4"/>
      <path d="m465.48 373.99-193.96 109.79c-9.6026 5.4355-21.434 5.4355-31.036 0l-193.96-109.79c-9.6026-5.4355-15.519-15.479-15.519-26.351v18.145c0 10.87 5.915 20.915 15.519 26.351l193.96 109.79c9.6026 5.4355 21.434 5.4355 31.036 0l193.96-109.79c9.6026-5.4355 15.519-15.48 15.519-26.351v-18.145c0 10.87-5.916 20.915-15.519 26.351z" fill="#4968c9"/>
      <path d="m439.84 341.91v-187.06c0-1.8008-0.98018-3.4648-2.571-4.3652l-178.69-101.15c-1.5908-0.90039-3.5502-0.90039-5.141 0l-178.7 101.15c-1.5908 0.90039-2.571 2.5644-2.571 4.3652v187.06l10.746 15.438 173.1 97.973 173.1-97.973z" fill="#f0faff"/>
      <path d="m72.16 341.91v15.235c0 1.8008 0.98018 3.4648 2.571 4.3652l178.7 101.15c1.5908 0.90039 3.5502 0.90039 5.141 0l178.7-101.15c1.5908-0.90039 2.571-2.5644 2.571-4.3652v-15.235l-181.27 102.6c-1.5908 0.90039-3.5502 0.90039-5.141 0z" fill="#efe2dd"/>
      <path d="m274.88 157.69 19.23 38.823c3.0663 6.1898 8.9929 10.481 15.849 11.473l43 6.2251c17.266 2.4995 24.16 23.64 11.666 35.773l-31.115 30.219c-4.961 4.8183-7.2253 11.76-6.0537 18.564l7.3455 42.67c1.1055 6.4244-0.74096 12.277-4.296 16.658h-26.246l-48.256-28.661-48.256 28.66-25.682 0.66659c-3.9206-4.4433-6.0232-10.567-4.8596-17.323l7.3455-42.67c1.1715-6.8033-1.0927-13.745-6.0538-18.563l-31.115-30.219c-12.493-12.134-5.5995-33.273 11.666-35.773l43-6.2251c6.8558-0.99251 12.783-5.2836 15.849-11.473l19.23-38.823c7.7209-15.589 30.03-15.589 37.751-9.8e-4z" fill="#ffcb5b"/>
      <path d="m253.63 321.27-71.563 37.486c6.0212 6.8239 16.322 9.6915 25.674 4.7928l38.461-20.146c6.1326-3.2122 13.458-3.2122 19.591 0l38.461 20.146c9.3526 4.8988 19.653 2.0312 25.674-4.7928l-71.563-37.486c-1.4829-0.77556-3.2525-0.77556-4.7344 0z" fill="#f7b737"/>
    </svg>
    <svg id="level-medium" version="1.1" viewBox="0 0 512 512" xmlns="http://www.w3.org/2000/svg">
      <path d="m481 356.99v-210.78c0-10.87-5.915-20.915-15.519-26.351l-193.96-109.79c-9.6026-5.4355-21.434-5.4355-31.036 0l-193.96 109.79c-9.6026 5.4355-15.519 15.479-15.519 26.351v210.78c0 10.87 5.915 20.915 15.519 26.351l193.96 109.79c9.6026 5.4355 21.434 5.4355 31.036 0l193.96-109.79c9.6016-5.4355 15.518-15.48 15.518-26.352z" fill="#567df4"/>
      <path d="m465.48 373.99-193.96 109.79c-9.6026 5.4355-21.434 5.4355-31.036 0l-193.96-109.79c-9.6026-5.4355-15.519-15.479-15.519-26.351v18.145c0 10.87 5.915 20.915 15.519 26.351l193.96 109.79c9.6026 5.4355 21.434 5.4355 31.036 0l193.96-109.79c9.6026-5.4355 15.519-15.48 15.519-26.351v-18.145c0 10.87-5.916 20.915-15.519 26.351z" fill="#4968c9"/>
      <path d="m439.84 341.91v-187.06c0-1.8008-0.98018-3.4648-2.571-4.3652l-178.69-101.15c-1.5908-0.90039-3.5502-0.90039-5.141 0l-178.7 101.15c-1.5908 0.90039-2.571 2.5644-2.571 4.3652v187.06l10.746 15.438 173.1 97.973 173.1-97.973z" fill="#f0faff"/>
      <path d="m72.16 341.91v15.235c0 1.8008 0.98018 3.4648 2.571 4.3652l178.7 101.15c1.5908 0.90039 3.5502 0.90039 5.141 0l178.7-101.15c1.5908-0.90039 2.571-2.5644 2.571-4.3652v-15.235l-181.27 102.6c-1.5908 0.90039-3.5502 0.90039-5.141 0z" fill="#efe2dd"/>
      <path d="m329.65 231.64c-1.5334-1.9662-4.1667-3.135-6.9834-3.135h-58.334v-75.624c0-3.245-2.75-6.0499-6.6001-6.7237-3.9167-0.68749-7.7501 0.97623-9.3501 3.9324l-66.667 123.75c-1.15 2.1175-0.90001 4.5924 0.63334 6.5312 1.5334 1.9525 4.1667 3.135 6.9834 3.135h58.334v75.624c0 3.245 2.75 6.0499 6.6001 6.7237 0.58335 0.0963 1.1667 0.15124 1.7334 0.15124 3.2334 0 6.2501-1.5537 7.6168-4.0837l66.667-123.75c1.1334-2.1312 0.91668-4.5787-0.63335-6.5312z" fill="#ffc107"/>
    </svg>
    <svg id="level-insane" version="1.1" viewBox="0 0 512 512" xmlns="http://www.w3.org/2000/svg">
      <path d="m481 356.99v-210.78c0-10.87-5.915-20.915-15.519-26.351l-193.96-109.79c-9.6026-5.4355-21.434-5.4355-31.036 0l-193.96 109.79c-9.6026 5.4355-15.519 15.479-15.519 26.351v210.78c0 10.87 5.915 20.915 15.519 26.351l193.96 109.79c9.6026 5.4355 21.434 5.4355 31.036 0l193.96-109.79c9.6016-5.4355 15.518-15.48 15.518-26.352z" fill="#567df4"/>
      <path d="m465.48 373.99-193.96 109.79c-9.6026 5.4355-21.434 5.4355-31.036 0l-193.96-109.79c-9.6026-5.4355-15.519-15.479-15.519-26.351v18.145c0 10.87 5.915 20.915 15.519 26.351l193.96 109.79c9.6026 5.4355 21.434 5.4355 31.036 0l193.96-109.79c9.6026-5.4355 15.519-15.48 15.519-26.351v-18.145c0 10.87-5.916 20.915-15.519 26.351z" fill="#4968c9"/>
      <path d="m439.84 341.91v-187.06c0-1.8008-0.98018-3.4648-2.571-4.3652l-178.69-101.15c-1.5908-0.90039-3.5502-0.90039-5.141 0l-178.7 101.15c-1.5908 0.90039-2.571 2.5644-2.571 4.3652v187.06l10.746 15.438 173.1 97.973 173.1-97.973z" fill="#f0faff"/>
      <path d="m72.16 341.91v15.235c0 1.8008 0.98018 3.4648 2.571 4.3652l178.7 101.15c1.5908 0.90039 3.5502 0.90039 5.141 0l178.7-101.15c1.5908-0.90039 2.571-2.5644 2.571-4.3652v-15.235l-181.27 102.6c-1.5908 0.90039-3.5502 0.90039-5.141 0z" fill="#efe2dd"/>
      <path d="m386 219.68-114.98 130.44c-8.0147 9.1557-22.016 9.1557-30.031 0l-114.98-130.44 106.18-73.688h49.674z" fill="#ff9838"/>
      <path d="m380.85 215.07-109.83 125.47c-8.0147 9.1557-22.016 9.1557-30.031 0l-109.83-125.47c-1.2161-1.3896-2.2037-2.9102-2.989-4.5068-3.6591 7.419-2.6774 16.623 2.989 23.095l109.83 125.47c2.9197 3.3353 6.6335 5.4552 10.563 6.3606l4.2755-8.4984 4.2814 8.5754c4.0577-0.85835 7.9053-3.0042 10.911-6.4376l109.83-125.47c5.6665-6.4726 6.6482-15.676 2.989-23.095-0.7834 1.5956-1.771 3.1172-2.9881 4.5068z" fill="#ff8709"/>
      <path d="m320.49 219.62h-128.98l50 121.47 10.043 15.392h8.8968l10.309-16.041zm0 0h65.505c-0.0606-4.969-1.8608-9.917-5.3978-13.811l-48.354-53.226c-3.8154-4.1997-9.1634-6.5846-14.764-6.5846h-35.628zm-128.98 0 40.669-73.62h-37.657c-5.601 0-10.949 2.385-14.764 6.5846l-48.354 53.226c-3.537 3.8926-5.3373 8.8405-5.3978 13.811h65.505z" fill="#ffcb5b"/>
      <path d="m241.5 341.08 10.043 24.396c2.9275 0.67427 5.9693 0.67427 8.8978 0l10.043-24.396c-7.9151 8.4074-21.069 8.4074-28.983 0z" fill="#f7b737"/>
    </svg>
  </defs>
</svg>