<svg version="1.1" viewBox="0 0 512 512" xmlns="http://www.w3.org/2000/svg">
  <g stroke-width="8.1967">
    <path d="m381.88 403.54a24.197 24.197 0 0 0 13.467 4.0984 24.59 24.59 0 0 0 24.59-24.59 24.221 24.221 0 0 0-2.623-10.82 24.221 24.221 0 0 0 10.82 2.623 24.475 24.475 0 0 0 18.033-41.147 24.402 24.402 0 0 0 15-42.377 24.59 24.59 0 0 0 16.148-23.033 26.172 26.172 0 0 0-0.7377-5.7377 24.434 24.434 0 0 0-2.1311-39.344 24.5 24.5 0 0 0-5.082-43.524 24.484 24.484 0 0 0-16.639-42.541c-0.4918 0-1.0656 0.16393-1.5574 0.16393a23.664 23.664 0 0 0 1.5574-8.3606 24.59 24.59 0 0 0-16.557-23.115 9.0164 9.0164 0 0 0 0.16394-1.4754 24.59 24.59 0 0 0-16.557-23.115 9.0164 9.0164 0 0 0 0.16394-1.4754 24.59 24.59 0 0 0-24.59-24.59 23.664 23.664 0 0 0-8.3606 1.5574c0-0.4918 0.16393-1.0656 0.16393-1.5574a24.59 24.59 0 0 0-24.59-24.59 24.115 24.115 0 0 0-12.049 3.2787 24.451 24.451 0 0 0-20.738-11.475 24.115 24.115 0 0 0-12.049 3.2787 24.369 24.369 0 0 0-38.688-3.5246 24.5 24.5 0 0 0-46.065 0 24.369 24.369 0 0 0-38.688 3.5246 24.115 24.115 0 0 0-12.049-3.2787 24.451 24.451 0 0 0-20.738 11.475 24.115 24.115 0 0 0-12.049-3.2787 24.59 24.59 0 0 0-24.59 24.59c0 0.4918 0.16393 1.0656 0.16393 1.5574a23.664 23.664 0 0 0-8.3606-1.5574 24.59 24.59 0 0 0-24.59 24.59 9.0164 9.0164 0 0 0 0.16393 1.4754 24.59 24.59 0 0 0-16.557 23.115 9.0164 9.0164 0 0 0 0.16393 1.4754 24.59 24.59 0 0 0-16.557 23.115 23.664 23.664 0 0 0 1.5574 8.3606c-0.4918 0-1.0656-0.16393-1.5574-0.16393a24.484 24.484 0 0 0-16.639 42.541 24.5 24.5 0 0 0-5.082 43.524 24.434 24.434 0 0 0-2.1311 39.344 26.172 26.172 0 0 0-0.7377 5.7377 24.59 24.59 0 0 0 16.147 23.033 24.402 24.402 0 0 0 15 42.377 24.443 24.443 0 0 0 28.852 38.524 24.221 24.221 0 0 0-2.6229 10.82 24.59 24.59 0 0 0 24.59 24.59 24.197 24.197 0 0 0 13.467-4.0984z" fill="#182f3a"/>
    <path d="m122.48 406.87a25.213 25.213 0 0 0 5-1.8524v0.0574a23.77 23.77 0 0 0 2.6721-1.5082h251.73a24.197 24.197 0 0 0 13.467 4.0738 24.59 24.59 0 0 0 24.59-24.59 24.221 24.221 0 0 0-2.623-10.82 24.221 24.221 0 0 0 10.82 2.623 24.475 24.475 0 0 0 18.033-41.147 24.402 24.402 0 0 0 15-42.377 24.59 24.59 0 0 0 16.148-23.033 26.172 26.172 0 0 0-0.7377-5.7377 24.434 24.434 0 0 0-2.1311-39.344 24.5 24.5 0 0 0-5.082-43.524 24.484 24.484 0 0 0-16.639-42.541c-0.4918 0-1.0656 0.16393-1.5574 0.16393a23.664 23.664 0 0 0 1.5574-8.3606 24.59 24.59 0 0 0-16.557-23.115 9.0164 9.0164 0 0 0 0.16394-1.4754 24.156 24.156 0 0 0-6.2869-16.205c-0.63934-0.04918-1.2541-0.18852-1.9098-0.18852a23.664 23.664 0 0 0-8.3606 1.5574c0-0.4918 0.16394-1.0656 0.16394-1.5574a24.59 24.59 0 0 0-24.59-24.59 24.115 24.115 0 0 0-12.049 3.2787 24.451 24.451 0 0 0-20.738-11.475 24.115 24.115 0 0 0-12.049 3.2787 24.369 24.369 0 0 0-38.688-3.5246 24.5 24.5 0 0 0-46.065 0 24.369 24.369 0 0 0-38.688 3.5246 24.115 24.115 0 0 0-12.049-3.2787 24.451 24.451 0 0 0-20.738 11.475 24.115 24.115 0 0 0-12.049-3.2787 24.59 24.59 0 0 0-24.59 24.59c0 0.4918 0.16394 1.0656 0.16394 1.5574a23.664 23.664 0 0 0-8.3606-1.5574 24.59 24.59 0 0 0-24.59 24.59 9.0164 9.0164 0 0 0 0.16393 1.4754 24.59 24.59 0 0 0-16.557 23.115 9.0164 9.0164 0 0 0 0.16393 1.4754 24.59 24.59 0 0 0-16.557 23.115 23.664 23.664 0 0 0 1.5574 8.3606c-0.4918 0-1.0656-0.16393-1.5574-0.16393a24.484 24.484 0 0 0-16.639 42.541 24.5 24.5 0 0 0-5.082 43.524 24.434 24.434 0 0 0-2.1311 39.344 26.172 26.172 0 0 0-0.7377 5.7377 24.59 24.59 0 0 0 16.147 23.033 24.402 24.402 0 0 0 15 42.377 25 25 0 0 0-4.0983 6.1967 25.459 25.459 0 0 0-1.5 4.0492c-0.09016 0.31967-0.21311 0.63114-0.28688 0.95901a23.229 23.229 0 0 0-0.67213 5.3524 24.59 24.59 0 0 0 24.59 24.59 23.246 23.246 0 0 0 5.3606-0.66393z" fill="#203a49"/>
    <path d="m387.15 292.89v73.77a131.15 131.15 0 0 1-131.15 131.15 131.15 131.15 0 0 1-131.15-131.15v-73.77a122.95 122.95 0 0 1 122.95-122.95h16.393a122.95 122.95 0 0 1 122.95 122.95z" fill="#996945"/>
    <path d="m264.2 169.94h-16.393a122.44 122.44 0 0 0-78.352 28.205 122.44 122.44 0 0 0-28.205 78.352v73.77a131.1 131.1 0 0 0 215.29 100.54 130.58 130.58 0 0 0 30.606-84.147v-73.77a122.95 122.95 0 0 0-122.95-122.95z" fill="#b07a4e"/>
    <path d="m387.15 292.89h8.1967a32.787 32.787 0 0 1 32.787 32.787 32.787 32.787 0 0 1-32.787 32.787h-8.1967" fill="#996945"/>
    <path d="m124.85 292.89h-8.1967a32.787 32.787 0 0 0-32.787 32.787 32.787 32.787 0 0 0 32.787 32.787h8.1967" fill="#996945"/>
    <path d="m411.74 260.1v37.213a32.697 32.697 0 0 0-16.393-4.4262h-8.1967a122.99 122.99 0 0 0-122.95-122.95h-16.393a123.14 123.14 0 0 0-122.95 122.95h-8.1967a32.697 32.697 0 0 0-16.393 4.4262v-37.213a155.74 155.74 0 0 1 311.47 0z" fill="#eeab45"/>
    <path d="m256 140.92a155.74 155.74 0 0 0-155.74 155.74v0.65574a32.697 32.697 0 0 1 16.393-4.4262h8.1967a123.14 123.14 0 0 1 122.95-122.95h16.393a122.99 122.99 0 0 1 122.95 122.95h8.1967a32.697 32.697 0 0 1 16.393 4.4262v-0.65574a155.88 155.88 0 0 0-155.74-155.74z" fill="#f2c14e"/>
    <circle cx="321.57" cy="317.48" r="40.983" fill="#cecece"/>
    <path d="m321.57 276.49a40.811 40.811 0 0 0-32.688 65.475 40.811 40.811 0 0 0 57.18-57.18 40.647 40.647 0 0 0-24.492-8.2951z" fill="#f2f2f2"/>
    <circle cx="190.43" cy="317.48" r="40.983" fill="#cecece"/>
    <path d="m190.43 276.49a40.647 40.647 0 0 0-24.492 8.2951 40.811 40.811 0 0 0 57.18 57.18 40.811 40.811 0 0 0-32.688-65.475z" fill="#f2f2f2"/>
    <path d="m256 391.25a27.803 27.803 0 0 1-19.795-8.1967l-10.59-10.598 11.59-11.59 10.598 10.598a11.861 11.861 0 0 0 16.393 0l10.598-10.598 11.59 11.59-10.598 10.598a27.77 27.77 0 0 1-19.787 8.1967z" fill="#84583a"/>
    <circle cx="198.62" cy="301.08" r="16.393" fill="#707070"/>
    <circle cx="321.57" cy="333.87" r="16.393" fill="#707070"/>
    <path d="m224.59 248.25-2.7541-4.0984a37.746 37.746 0 0 0-62.82 0l-2.7541 4.0984-13.639-9.0983 2.7541-4.0984a54.147 54.147 0 0 1 90.098 0l2.7541 4.0984z" fill="#84583a"/>
    <path d="m321.57 268.3a54.033 54.033 0 0 1-45.082-24.106l-2.7541-4.0984 13.639-9.0983 2.7541 4.0984a37.746 37.746 0 0 0 62.82 0l2.7541-4.0984 13.639 9.0983-2.7541 4.0984a54.033 54.033 0 0 1-45.016 24.106z" fill="#84583a"/>
    <path d="m256 399.44 15.574 8.1967a39.344 39.344 0 0 1 33.606-24.59c22.631 0 40.984 25.688 40.984 57.377s-18.352 57.377-40.984 57.377a39.344 39.344 0 0 1-33.606-24.59" fill="#b07a4e"/>
    <ellipse cx="305.18" cy="440.43" rx="16.393" ry="24.59" fill="#84583a"/>
    <path d="m305.18 506a47.311 47.311 0 0 1-40.983-29.131l14.672-7.3114a31.5 31.5 0 0 0 26.311 20.049c17.77 0 32.787-22.525 32.787-49.18 0-26.656-15.016-49.18-32.787-49.18a31.492 31.492 0 0 0-26.295 20.049 8.1967 8.1967 0 0 1-11.164 3.5984l-15.574-8.1967 7.6393-14.508 8.5902 4.5328a44.852 44.852 0 0 1 36.803-21.869c27.123 0 49.18 29.418 49.18 65.574s-22.057 65.574-49.18 65.574z" fill="#84583a"/>
  </g>
</svg>
