<svg version="1.1" viewBox="0 0 512 512" xmlns="http://www.w3.org/2000/svg">
  <g transform="matrix(.99612 0 0 1 -8.7707 -1.7954)" stroke-width=".98821">
    <g>
      <path d="m491.68 358.79v-210.78c0-10.87-5.938-20.915-15.579-26.351l-194.72-109.79c-9.64-5.4355-21.517-5.4355-31.157 0l-194.72 109.79c-9.64 5.4355-15.579 15.479-15.579 26.351v210.78c0 10.87 5.938 20.915 15.579 26.351l194.72 109.79c9.64 5.4355 21.517 5.4355 31.157 0l194.72-109.79c9.639-5.4355 15.578-15.48 15.578-26.352z" fill="#567df4"/>
      <path d="m476.1 375.79-194.72 109.79c-9.64 5.4355-21.517 5.4355-31.157 0l-194.72-109.79c-9.64-5.4355-15.579-15.479-15.579-26.351v18.145c0 10.87 5.938 20.915 15.579 26.351l194.72 109.79c9.64 5.4355 21.517 5.4355 31.157 0l194.72-109.79c9.64-5.4355 15.579-15.48 15.579-26.351v-18.145c0 10.87-5.939 20.915-15.579 26.351z" fill="#4968c9"/>
      <path d="m450.36 343.71v-187.06c0-1.8008-0.984-3.4648-2.581-4.3652l-179.39-101.15c-1.597-0.90039-3.564-0.90039-5.161 0l-179.4 101.15c-1.597 0.90039-2.581 2.5644-2.581 4.3652v187.06l10.788 15.438 173.77 97.973 173.77-97.973z" fill="#f0faff"/>
    </g>
    <path d="m81.246 343.71v15.235c0 1.8008 0.984 3.4648 2.581 4.3652l179.4 101.15c1.597 0.90039 3.564 0.90039 5.161 0l179.4-101.15c1.597-0.90039 2.581-2.5644 2.581-4.3652v-15.235l-181.98 102.6c-1.597 0.90039-3.564 0.90039-5.161 0z" fill="#efe2dd"/>
  </g>
  <path d="m329.65 231.64c-1.5334-1.9662-4.1667-3.135-6.9834-3.135h-58.334v-75.624c0-3.245-2.75-6.0499-6.6001-6.7237-3.9167-0.68749-7.7501 0.97623-9.3501 3.9324l-66.667 123.75c-1.15 2.1175-0.90001 4.5924 0.63334 6.5312 1.5334 1.9525 4.1667 3.135 6.9834 3.135h58.334v75.624c0 3.245 2.75 6.0499 6.6001 6.7237 0.58335 0.0963 1.1667 0.15124 1.7334 0.15124 3.2334 0 6.2501-1.5537 7.6168-4.0837l66.667-123.75c1.1334-2.1312 0.91668-4.5787-0.63335-6.5312z" fill="#ffc107" stroke-width=".47307"/>
</svg>
