<svg version="1.1" viewBox="0 0 512 512" xmlns="http://www.w3.org/2000/svg">
  <g stroke-width="5.7642">
    <path d="m377.04 463.19h-242.08c-43.572 0-79.229-35.652-79.229-79.229v-118.84c0-43.572 35.652-79.223 79.229-79.223h242.08c43.572 0 79.229 35.652 79.229 79.223v118.84c-6e-3 43.572-35.657 79.223-79.229 79.223z" fill="#6dc9f7"/>
    <path d="m377.04 185.9h-242.08c-43.572 0-79.229 35.652-79.229 79.229v17.293c0-43.578 35.652-79.229 79.229-79.229h242.08c43.578 0 79.229 35.652 79.229 79.229v-17.293c-6e-3 -43.578-35.657-79.229-79.229-79.229z" fill="#fff"/>
    <path d="m134.96 423.58c-21.846 0-39.612-17.771-39.612-39.612v-118.84c0-21.846 17.771-39.612 39.612-39.612h242.08c21.846 0 39.612 17.771 39.612 39.612v118.84c0 21.846-17.771 39.612-39.612 39.612z" fill="#ffd7e5"/>
  </g>
  <g fill="#0089ef" stroke-width="5.7642">
    <path d="m55.734 278.94v87.939c-24.296 0-43.969-19.673-43.969-43.969s19.673-43.969 43.969-43.969z"/>
    <path d="m500.24 322.91c0 24.296-19.673 43.969-43.969 43.969v-87.939c24.29 0 43.969 19.673 43.969 43.969z"/>
    <path d="m256 141.93c-24.296 0-43.969 19.673-43.969 43.969h87.945c0-24.296-19.679-43.969-43.975-43.969z"/>
  </g>
  <circle cx="256" cy="69.17" r="20.359" fill="#fa759e" stroke-width="5.7642"/>
  <g fill="#3a2c60" stroke-width="5.7642">
    <path d="m175.73 278.05c-13.615 0-24.757 11.142-24.757 24.757s11.142 24.757 24.757 24.757c13.615 0 24.757-11.142 24.757-24.757s-11.136-24.757-24.757-24.757z"/>
    <circle cx="336.28" cy="302.81" r="24.757"/>
    <path d="m276.53 355.93c-0.29974 0.38044-7.4416 9.3438-20.526 9.3438-13.327 0-20.1-8.7847-20.446-9.2343-1.8676-2.5536-5.4472-3.13-8.0238-1.2739-2.5824 1.8618-3.1646 5.4645-1.3027 8.0468 0.40926 0.57066 10.312 13.99 29.766 13.99 18.959 0 29.259-13.315 29.686-13.88 1.9137-2.5247 1.418-6.1043-1.0894-8.0353-2.4959-1.9137-6.1158-1.4641-8.0641 1.0433z"/>
    <path d="m462.03 273.53v-8.41c0-46.863-38.125-84.993-84.988-84.993h-71.672c-2.6515-22.821-20.786-40.955-43.606-43.606v-41.929c11.632-2.64 20.359-13.016 20.359-25.432 0-14.405-11.719-26.123-26.123-26.123s-26.118 11.719-26.118 26.123c0 12.416 8.727 22.792 20.353 25.432v41.929c-22.821 2.6515-40.955 20.792-43.606 43.606h-71.667c-46.869 0-84.993 38.125-84.993 84.993v8.41c-24.717 2.8706-43.969 23.898-43.969 49.376 0 25.472 19.252 46.5 43.969 49.371v11.684c0 46.863 38.125 84.993 84.993 84.993h242.08c46.863 0 84.988-38.125 84.988-84.993v-11.684c24.717-2.8706 43.969-23.898 43.969-49.371 0-25.478-19.252-46.506-43.969-49.376zm-220.62-204.36c0-8.0469 6.5482-14.595 14.589-14.595 8.0468 0 14.595 6.5482 14.595 14.595 0 8.0469-6.5482 14.589-14.595 14.589-8.0411 0-14.589-6.5424-14.589-14.589zm14.589 78.526c19.103 0 34.983 14.099 37.773 32.441h-75.54c2.7841-18.342 18.665-32.441 37.767-32.441zm-238.47 175.22c0-19.108 14.099-34.983 32.441-37.773v75.546c-18.342-2.7956-32.441-18.67-32.441-37.773zm432.97 61.055c0 40.505-32.954 73.465-73.459 73.465h-242.08c-40.505 0-73.465-32.954-73.465-73.465v-118.84c0-40.505 32.96-73.465 73.465-73.465h242.08c40.505 0 73.459 32.954 73.459 73.465v101.75zm11.528-23.287v-75.546c18.342 2.7899 32.441 18.665 32.441 37.773s-14.099 34.983-32.441 37.773z"/>
  </g>
</svg>
