<?xml version="1.0" encoding="iso-8859-1"?>
<!-- Generator: Adobe Illustrator 19.0.0, SVG Export Plug-In . SVG Version: 6.00 Build 0)  -->
<svg version="1.1" id="Capa_1" xmlns="http://www.w3.org/2000/svg" xmlns:xlink="http://www.w3.org/1999/xlink" x="0px" y="0px"
	 viewBox="0 0 512 512" style="enable-background:new 0 0 512 512;" xml:space="preserve">
<circle style="fill:#FFD93B;" cx="256" cy="256" r="256"/>
<path style="fill:#F4C534;" d="M512,256c0,141.44-114.64,256-256,256c-80.48,0-152.32-37.12-199.28-95.28
	c43.92,35.52,99.84,56.72,160.72,56.72c141.36,0,256-114.56,256-256c0-60.88-21.2-116.8-56.72-160.72
	C474.8,103.68,512,175.52,512,256z"/>
<g>
	<path style="fill:#3E4347;" d="M155.152,72.928c0,0-52.016-7.312-106.624,55.904C48.528,128.832,83.84,15.584,155.152,72.928z"/>
	<path style="fill:#3E4347;" d="M356.848,72.928c0,0,52.016-7.312,106.624,55.904C463.472,128.832,428.16,15.584,356.848,72.928z"/>
</g>
<circle style="fill:#F4C534;" cx="151.28" cy="212.8" r="94.16"/>
<circle style="fill:#FFFFFF;" cx="151.28" cy="212.8" r="77.072"/>
<path style="fill:#3E4347;" d="M101.84,187.504c0,21.472,17.456,38.736,38.928,38.736s38.928-17.28,38.928-38.736
	c0-21.472-17.456-38.928-38.928-38.928S101.84,166.032,101.84,187.504z"/>
<ellipse transform="matrix(-0.7071 -0.7071 0.7071 -0.7071 92.9323 383.816)" style="fill:#FFFFFF;" cx="125.957" cy="172.661" rx="7.488" ry="12.416"/>
<circle style="fill:#F4C534;" cx="360.72" cy="212.72" r="94.16"/>
<circle style="fill:#FFFFFF;" cx="360.72" cy="212.72" r="77.072"/>
<path style="fill:#3E4347;" d="M400.08,238c0-21.472-17.456-38.736-38.928-38.736c-21.472,0-38.928,17.28-38.928,38.736
	s17.456,38.928,38.928,38.928S400.08,259.472,400.08,238z"/>
<ellipse transform="matrix(-0.7071 -0.7071 0.7071 -0.7071 462.962 697.4927)" style="fill:#FFFFFF;" cx="375.936" cy="252.864" rx="7.488" ry="12.416"/>
<path style="fill:#3E4347;" d="M111.92,403.504c9.216-18.272,35.408-38.496,50.336-23.664c7.456,6.368,11.6,15.664,17.824,17.728
	c6.448,2.064,11.152-1.984,16.944-11.44c12.896-17.792,27.584-17.872,39.36-8.464c5.488,4.976,8.208,10.016,11.312,13.712
	c10.768,14.48,15.856-2.064,27.856-13.808c11.28-9.552,26.256-9.056,39.344,8.624c5.936,9.472,10.24,13.392,16.928,11.328
	c6.24-2.064,10.368-11.376,17.856-17.728c16.544-14.368,41.136,5.392,50.384,23.712c-10.352-11.904-33.44-29.712-44.064-18
	c-5.504,4.64-6.768,14.352-19.168,21.408c-5.728,2.8-13.84,2.992-21.328-1.088c-6.24-3.824-9.312-8.912-12.416-12.8
	c-7.2-10.016-11.92-9.104-16.784-5.584c-7.536,6.656-7.04,12.816-17.392,19.52c-8.448,6.16-24,5.552-33.968-7.408
	c-3.824-4.944-6.528-9.552-9.376-12.08c-1.232-1.168-3.072-1.936-3.2-2.064c-4.32-0.688-7.184-1.136-13.584,7.536
	c-9.328,11.776-17.84,20.656-33.648,14c-12.464-7.024-13.712-16.752-19.216-21.424C145.472,373.664,122.224,391.6,111.92,403.504z"
	/>
<g>
</g>
<g>
</g>
<g>
</g>
<g>
</g>
<g>
</g>
<g>
</g>
<g>
</g>
<g>
</g>
<g>
</g>
<g>
</g>
<g>
</g>
<g>
</g>
<g>
</g>
<g>
</g>
<g>
</g>
</svg>
