<svg version="1.1" viewBox="0 0 512 512" xmlns="http://www.w3.org/2000/svg">
  <g transform="matrix(.99612 0 0 1 -8.7707 -1.7954)" stroke-width=".98821">
    <g>
      <path d="m491.68 358.79v-210.78c0-10.87-5.938-20.915-15.579-26.351l-194.72-109.79c-9.64-5.4355-21.517-5.4355-31.157 0l-194.72 109.79c-9.64 5.4355-15.579 15.479-15.579 26.351v210.78c0 10.87 5.938 20.915 15.579 26.351l194.72 109.79c9.64 5.4355 21.517 5.4355 31.157 0l194.72-109.79c9.639-5.4355 15.578-15.48 15.578-26.352z" fill="#567df4"/>
      <path d="m476.1 375.79-194.72 109.79c-9.64 5.4355-21.517 5.4355-31.157 0l-194.72-109.79c-9.64-5.4355-15.579-15.479-15.579-26.351v18.145c0 10.87 5.938 20.915 15.579 26.351l194.72 109.79c9.64 5.4355 21.517 5.4355 31.157 0l194.72-109.79c9.64-5.4355 15.579-15.48 15.579-26.351v-18.145c0 10.87-5.939 20.915-15.579 26.351z" fill="#4968c9"/>
      <path d="m450.36 343.71v-187.06c0-1.8008-0.984-3.4648-2.581-4.3652l-179.39-101.15c-1.597-0.90039-3.564-0.90039-5.161 0l-179.4 101.15c-1.597 0.90039-2.581 2.5644-2.581 4.3652v187.06l10.788 15.438 173.77 97.973 173.77-97.973z" fill="#f0faff"/>
    </g>
    <path d="m81.246 343.71v15.235c0 1.8008 0.984 3.4648 2.581 4.3652l179.4 101.15c1.597 0.90039 3.564 0.90039 5.161 0l179.4-101.15c1.597-0.90039 2.581-2.5644 2.581-4.3652v-15.235l-181.98 102.6c-1.597 0.90039-3.564 0.90039-5.161 0z" fill="#efe2dd"/>
  </g>
  <g transform="matrix(.98531 0 0 .98172 -458.57 -36.857)">
    <path d="m744.38 198.17 19.517 39.546c3.112 6.305 9.127 10.676 16.085 11.687l43.641 6.341c17.523 2.546 24.52 24.08 11.84 36.439l-31.579 30.782c-5.035 4.908-7.333 11.979-6.144 18.91l7.455 43.465c1.122 6.544-0.752 12.506-4.36 16.968h-26.637l-48.975-29.195-48.975 29.194-26.065 0.679c-3.979-4.526-6.113-10.764-4.932-17.646l7.455-43.465c1.189-6.93-1.109-14.001-6.144-18.909l-31.579-30.782c-12.679-12.36-5.683-33.893 11.84-36.439l43.641-6.341c6.958-1.011 12.974-5.382 16.085-11.687l19.517-39.546c7.836-15.879 30.478-15.879 38.314-1e-3z" fill="#ffcb5b"/>
    <path d="m722.82 364.8-72.63 38.184c6.111 6.951 16.565 9.872 26.057 4.882l39.034-20.521c6.224-3.272 13.659-3.272 19.883 0l39.034 20.521c9.492 4.99 19.946 2.069 26.057-4.882l-72.63-38.184c-1.505-0.79-3.301-0.79-4.805 0z" fill="#f7b737"/>
  </g>
</svg>
