<svg version="1.1" viewBox="0 0 512 512" xmlns="http://www.w3.org/2000/svg">
  <g transform="matrix(.99612 0 0 1 -8.7707 -1.7954)" stroke-width=".98821">
    <g>
      <path d="m491.68 358.79v-210.78c0-10.87-5.938-20.915-15.579-26.351l-194.72-109.79c-9.64-5.4355-21.517-5.4355-31.157 0l-194.72 109.79c-9.64 5.4355-15.579 15.479-15.579 26.351v210.78c0 10.87 5.938 20.915 15.579 26.351l194.72 109.79c9.64 5.4355 21.517 5.4355 31.157 0l194.72-109.79c9.639-5.4355 15.578-15.48 15.578-26.352z" fill="#567df4"/>
      <path d="m476.1 375.79-194.72 109.79c-9.64 5.4355-21.517 5.4355-31.157 0l-194.72-109.79c-9.64-5.4355-15.579-15.479-15.579-26.351v18.145c0 10.87 5.938 20.915 15.579 26.351l194.72 109.79c9.64 5.4355 21.517 5.4355 31.157 0l194.72-109.79c9.64-5.4355 15.579-15.48 15.579-26.351v-18.145c0 10.87-5.939 20.915-15.579 26.351z" fill="#4968c9"/>
      <path d="m450.36 343.71v-187.06c0-1.8008-0.984-3.4648-2.581-4.3652l-179.39-101.15c-1.597-0.90039-3.564-0.90039-5.161 0l-179.4 101.15c-1.597 0.90039-2.581 2.5644-2.581 4.3652v187.06l10.788 15.438 173.77 97.973 173.77-97.973z" fill="#f0faff"/>
    </g>
    <path d="m81.246 343.71v15.235c0 1.8008 0.984 3.4648 2.581 4.3652l179.4 101.15c1.597 0.90039 3.564 0.90039 5.161 0l179.4-101.15c1.597-0.90039 2.581-2.5644 2.581-4.3652v-15.235l-181.98 102.6c-1.597 0.90039-3.564 0.90039-5.161 0z" fill="#efe2dd"/>
  </g>
  <g transform="matrix(.97681 0 0 1.0004 5.9368 -6.3942)">
    <path d="m389.09 225.98-117.71 130.39c-8.205 9.152-22.539 9.152-30.744 0l-117.71-130.39 108.7-73.659h50.853z" fill="#ff9838"/>
    <path d="m383.81 221.38-112.44 125.42c-8.205 9.152-22.539 9.152-30.744 0l-112.44-125.42c-1.245-1.389-2.256-2.909-3.06-4.505-3.746 7.416-2.741 16.616 3.06 23.086l112.44 125.42c2.989 3.334 6.791 5.453 10.814 6.358l4.377-8.495 4.383 8.572c4.154-0.858 8.093-3.003 11.17-6.435l112.44-125.42c5.801-6.47 6.806-15.67 3.06-23.086-0.802 1.595-1.813 3.116-3.059 4.505z" fill="#ff8709"/>
    <path d="m322.02 225.92h-132.04l51.187 121.42 10.281 15.386h9.108l10.554-16.035zm0 0h67.06c-0.062-4.967-1.905-9.913-5.526-13.805l-49.502-53.205c-3.906-4.198-9.381-6.582-15.115-6.582h-36.474zm-132.04 0 41.634-73.591h-38.551c-5.734 0-11.209 2.384-15.115 6.582l-49.502 53.205c-3.621 3.891-5.464 8.837-5.526 13.805h67.06z" fill="#ffcb5b"/>
    <path d="m241.16 347.34 10.281 24.386c2.997 0.674 6.111 0.674 9.109 0l10.281-24.386c-8.103 8.404-21.569 8.404-29.671 0z" fill="#f7b737"/>
  </g>
</svg>
