<?xml version="1.0" encoding="iso-8859-1"?>
<!-- Generator: Adobe Illustrator 19.0.0, SVG Export Plug-In . SVG Version: 6.00 Build 0)  -->
<svg version="1.1" id="Capa_1" xmlns="http://www.w3.org/2000/svg" xmlns:xlink="http://www.w3.org/1999/xlink" x="0px" y="0px"
	 viewBox="0 0 512.008 512.008" style="enable-background:new 0 0 512.008 512.008;" xml:space="preserve">
<circle style="fill:#FFD93B;" cx="256.004" cy="246.624" r="246.624"/>
<path style="fill:#F4C534;" d="M502.628,246.624c0,136.256-110.432,246.624-246.624,246.624c-77.536,0-146.736-35.76-191.968-91.792
	c42.304,34.224,96.176,54.64,154.832,54.64c136.176,0,246.624-110.368,246.624-246.624c0-58.64-20.416-112.528-54.64-154.832
	C466.788,99.888,502.628,169.088,502.628,246.624z"/>
<path style="fill:#FFD93B;" d="M361.604,472.448c-5.632,26.4-32.368,46.224-61.504,37.456c-29.136-8.48-59.04-8.32-88.624,0
	c-27.632,8-55.088-9.712-61.04-37.616C129.62,372.016,175.908,256.8,255.86,256.8C337.588,256.8,382.068,373.648,361.604,472.448z"
	/>
<path style="fill:#3E4347;" d="M340.34,468.048c-3.248,15.408-18.8,25.552-33.952,21.088c-33.68-9.728-67.216-9.728-100.768,0
	c-15.152,4.464-30.704-5.68-33.952-21.232c-18.528-89.536,21.904-189.344,84.256-189.344
	C318.836,278.56,358.74,378.768,340.34,468.048z"/>
<path style="fill:#E24B4B;" d="M317.284,473.136c7.28-19.2,5.984-41.664-7.664-60.784c-9.216-13.104-26.112-18-40.992-12.256
	c-10.032,3.872-21.168,5.088-31.872,4.224c-41.28-3.36-54.848,35.856-42.704,68.816C234.66,460.816,275.748,461.424,317.284,473.136
	z"/>
<g>
	<path style="fill:#FFFFFF;" d="M256.004,447.44c-36.752,0-68.384,10.112-82.976,24.704c4.96,13.056,18.896,21.04,32.592,16.992
		c33.536-9.728,67.088-9.728,100.768,0c13.728,4.048,27.68-3.952,32.624-16.96C324.452,457.552,292.788,447.44,256.004,447.44z"/>
	<path style="fill:#FFFFFF;" d="M137.236,238.304c-43.776-4.464-70.592-35.44-59.488-79.216
		C88.996,115.312,133.7,79.856,177.78,79.856c43.936,0,61.392,34.368,64.48,79.52C245.956,214.72,187.94,243.552,137.236,238.304z"
		/>
</g>
<path style="fill:#3E4347;" d="M211.62,159.328c0,21.856-17.68,39.792-39.536,39.792c-21.984-0.128-39.664-17.936-39.664-39.792
	s17.68-39.664,39.664-39.664C193.94,119.664,211.62,137.472,211.62,159.328z"/>
<g>
	
		<ellipse transform="matrix(-0.7071 -0.7071 0.7071 -0.7071 215.4323 379.1729)" style="fill:#FFFFFF;" cx="186.245" cy="144.969" rx="11.744" ry="7.152"/>
	<path style="fill:#FFFFFF;" d="M366.148,239.744c44.368-4.544,75.312-36.096,70.048-80.656
		c-5.424-44.56-45.392-80.672-89.472-80.672c-43.936,0-65.968,34.992-75.072,80.976
		C260.564,215.728,314.724,245.088,366.148,239.744z"/>
</g>
<path style="fill:#3E4347;" d="M381.476,159.328c0,21.856-17.68,39.792-39.536,39.792c-21.984-0.128-39.664-17.936-39.664-39.792
	s17.68-39.664,39.664-39.664C363.796,119.664,381.476,137.472,381.476,159.328z"/>
<ellipse transform="matrix(-0.7071 -0.7071 0.7071 -0.7071 505.3508 499.2974)" style="fill:#FFFFFF;" cx="356.083" cy="144.987" rx="11.744" ry="7.152"/>
<g>
</g>
<g>
</g>
<g>
</g>
<g>
</g>
<g>
</g>
<g>
</g>
<g>
</g>
<g>
</g>
<g>
</g>
<g>
</g>
<g>
</g>
<g>
</g>
<g>
</g>
<g>
</g>
<g>
</g>
</svg>
