<?xml version="1.0" encoding="iso-8859-1"?>
<!-- Generator: Adobe Illustrator 19.0.0, SVG Export Plug-In . SVG Version: 6.00 Build 0)  -->
<svg version="1.1" id="Capa_1" xmlns="http://www.w3.org/2000/svg" xmlns:xlink="http://www.w3.org/1999/xlink" x="0px" y="0px"
	 viewBox="0 0 512 512" style="enable-background:new 0 0 512 512;" xml:space="preserve">
<circle style="fill:#FFD93B;" cx="256" cy="256" r="256"/>
<g>
	<path style="fill:#F4C534;" d="M512,256c0,141.44-114.64,256-256,256c-80.48,0-152.32-37.12-199.28-95.28
		c43.92,35.52,99.84,56.72,160.72,56.72c141.36,0,256-114.56,256-256c0-60.88-21.2-116.8-56.72-160.72
		C474.8,103.68,512,175.52,512,256z"/>
	<path style="fill:#F4C534;" d="M268.32,196.832c0,27.872-28.704,50.496-57.984,50.496s-53.024-22.592-53.024-50.464
		s23.744-50.464,53.024-50.464C239.616,146.416,268.32,168.96,268.32,196.832z"/>
</g>
<path style="fill:#DEE4E9;" d="M467.552,162.832c0,26.048-228.096,77.472-254.144,77.472s-47.152-21.104-47.152-47.152
	S187.36,146,213.408,146C239.472,146,467.552,136.8,467.552,162.832z"/>
<path style="fill:#3E4347;" d="M472.272,162.736c0.416,7.696-7.6,14.496-17.648,15.072c-10.048,0.56-18.48-5.136-18.656-12.832
	c-0.416-7.696,7.568-14.288,17.632-14.848C463.68,149.344,472.096,155.056,472.272,162.736z"/>
<path style="fill:#5A5F63;" d="M465.936,159.776c-0.624,1.392-3.328,1.6-5.904,0.608c-2.784-1.264-4.272-3.36-3.648-4.752
	c0.64-1.392,3.088-1.632,5.904-0.608C464.848,156.256,466.56,158.384,465.936,159.776z"/>
<path style="fill:#F4C534;" d="M254.48,201.504c0,36.208-37.296,65.6-75.328,65.6s-68.88-29.344-68.88-65.552
	S141.104,136,179.152,136S254.48,165.296,254.48,201.504z"/>
<path style="fill:#FFFFFF;" d="M398.368,165.616c0,33.824-181.376,92.368-215.2,92.368S121.92,230.56,121.92,196.72
	s27.424-61.264,61.248-61.264C217.008,135.456,398.368,131.776,398.368,165.616z"/>
<path style="fill:#E9EFF4;" d="M398.032,167.808c-7.52,34.24-181.76,90.24-214.88,90.24c-33.76,0-61.28-27.52-61.28-61.28
	c0-15.36,5.6-29.44,15.04-40.16c-2.08,5.92-3.04,12.16-3.04,18.72c0,33.92,27.36,62.08,61.12,62.88
	C223.632,238.848,357.712,200.288,398.032,167.808z"/>
<path style="fill:#3E4347;" d="M404.496,165.488c0.544,9.984-9.872,18.848-22.928,19.568c-13.056,0.736-24-6.672-24.24-16.656
	c-0.544-10,9.84-18.56,22.896-19.296C393.328,148.096,404.272,155.504,404.496,165.488z"/>
<path style="fill:#5A5F63;" d="M396.256,161.632c-0.816,1.808-4.32,2.08-7.664,0.784c-3.616-1.632-5.552-4.368-4.736-6.176
	s4.016-2.112,7.664-0.784C394.832,157.056,397.088,159.824,396.256,161.632z"/>
<g>
	<path style="fill:#3E4347;" d="M97.488,123.472c0,0,61.952-54.304,128.192-26.528C225.68,96.928,207.024,7.664,97.488,123.472z"/>
	<path style="fill:#3E4347;" d="M404.528,95.072c0,0-74.464-35.248-130.56,9.616C273.968,104.688,267.44,13.728,404.528,95.072z"/>
	<path style="fill:#3E4347;" d="M343.824,470.416c-123.2,89.104-151.632-82.128-99.088-145.232
		c20.336-24.48,58-43.232,105.488-46.72l-27.504-22.416c13.376,7.536,42.128,23.472,46.336,25.808
		c-49.616,14.08-74.048,50.336-74.72,102.304C293.392,450.48,324.976,461.568,343.824,470.416z"/>
</g>
<path style="fill:#373C3F;" d="M220.976,385.248c-1.92,14.656-1.776,29.728,0.48,43.888c7.248,21.664,23.328,31.6,29.264,25.968
	c8.176-6.848,5.456-26.384,6.528-46.64c-0.16-21.216,3.824-43.872-4.928-52.32C245.776,348.944,228.176,361.12,220.976,385.248z"/>
<path style="fill:#E24B4B;" d="M288.976,405.824c-4.784-12.864-15.552-22.592-27.136-27.808c-12.416-5.392-22.304,0-24.32,7.28
	c-0.24,0.848-0.832,1.44-1.744,1.808c-1.376,0.576-3.28,0.512-5.552-0.048c-3.584-0.784-6.704-0.4-9.52,0.384
	c-1.312,11.232-1.392,22.688-0.272,33.728c9.344,15.84,18.832,34.704,35.44,38.256C273.232,463.664,300.368,436.704,288.976,405.824
	z"/>
<g style="opacity:0.2;">
	<path style="fill:#FFFFFF;" d="M257.664,391.616c5.456,2.448,10.608,2.736,11.728,0.224c1.168-2.624-2.656-7.008-8.448-9.248
		c-5.92-2.32-11.216-1.68-11.856,0.672C248.352,385.696,252.304,389.12,257.664,391.616z"/>
</g>
<g>
	<path style="fill:#D03F3F;" d="M249.696,376c-0.528,0.112-1.024,0.224-1.504,0.288C248.688,376.176,249.184,376.064,249.696,376z"
		/>
	<path style="fill:#D03F3F;" d="M245.056,377.248c-3.872,1.68-6.512,4.56-7.552,8.032c-0.256,0.832-0.832,1.424-1.744,1.808
		c-1.376,0.576-3.28,0.464-5.552-0.048c-3.52-0.832-6.704-0.432-9.52,0.384c-0.032,0.224-0.032,0.432-0.064,0.656
		c4.288,0.064,9.456,1.2,13.888,5.376c11.648,9.04,25.296,30.944,28.608,40.032c2.064-1.04-12.72-31.552-21.168-39.664
		C236.896,385.904,240.64,379.68,245.056,377.248z"/>
	<path style="fill:#D03F3F;" d="M251.04,444.912c-12.864-7.072-21.136-19.584-31.328-35.424c0.096,3.92,0.304,7.824,0.688,11.68
		c9.344,15.824,18.832,34.704,35.44,38.256c9.296,1.552,20.448-3.824,28.144-14.8C283.008,445.648,266.912,454.144,251.04,444.912z"
		/>
</g>
<g>
</g>
<g>
</g>
<g>
</g>
<g>
</g>
<g>
</g>
<g>
</g>
<g>
</g>
<g>
</g>
<g>
</g>
<g>
</g>
<g>
</g>
<g>
</g>
<g>
</g>
<g>
</g>
<g>
</g>
</svg>
