<?xml version="1.0" encoding="UTF-8"?>
<svg version="1.1" viewBox="0 0 512 512" xmlns="http://www.w3.org/2000/svg">
 <g transform="translate(119.76 12.29)">
  <path d="m70.171 271.01-64.633 3.925v14.341c0.396 24.331 11.616 43.975 21.621 56.982 12.554 14.224 29.799 23.13 46.732 25.078z" fill="#e6eef2"/>
  <path d="m245.31 260.28-65.054 3.999 28.96 84.976c9.126-5.435 37.471-37.852 36.519-73.447z" fill="#cfdfe6"/>
  <path d="m255.54 96.36c-17.999-13.5-41.1-18.6-62.1-13.5-2.699 0.601-5.099 1.5-7.5 2.401-1.5-24.3-12.9-46.8-32.999-61.8l-11.401-8.416-22.2 30.015c-15 20.101-15.601 45.901-11.1 63.301 3.203 12.808 10.6 24.738 21.343 34.155-37.495 33.849-62.829 79.239-71.569 129.88-5.977 28.872-4.468 61.641 4.248 92.285l0.146 0.483c13.622 42.354 42.505 84.886 79.132 100.44 9.556 4.059 19.515 6.771 30.015 6.771 11.807 0 22.749-3.325 31.978-9.888 29.912-21.255 32.754-69.364 7.617-143.5-4.233-13.872-8.423-25.796-12.495-37.31-11.305-32.109-21.198-60.586-27.415-120.89 4.726 0.756 9.234 1.871 14.399 1.871 26.102 0 50.101-11.1 63.301-31.201l17.999-26.4z" fill="#3b3b3b"/>
  <path d="m203.53 462.49c29.912-21.255 32.754-69.364 7.617-143.5-4.233-13.872-8.423-25.796-12.495-37.31-11.305-32.109-21.198-60.586-27.415-120.89 4.726 0.756 9.234 1.871 14.399 1.871 26.102 0 50.101-11.1 63.301-31.201l17.999-26.4-11.4-8.699c-17.999-13.5-41.1-18.6-62.1-13.5-2.699 0.601-5.099 1.5-7.5 2.401-1.5-24.3-12.9-46.8-32.999-61.8l-11.399-8.416v450.56c9.556 4.059 19.515 6.771 30.015 6.771 11.806 0 22.749-3.325 31.977-9.888z" fill="#2a2a2a"/>
  <path d="m172.52 355.51c-9.197-23.688-14.311-48.314-15.981-72.764-1.904-27.891 1.311-48.235 1.772-53.74l-16.772-1.738-13.066-1.353-1.553 14.912c-3.957 38.297 1.348 78.226 14.619 116.27 1.075 3.08 1.818 6.231 3.003 9.283l5.435 13.975 6.563-2.547 21.401-8.307z" fill="#e6eef2"/>
  <path d="m149.98 380.35 6.563-2.547 21.401-8.307-5.42-13.989c-9.198-23.689-14.312-48.315-15.982-72.765-1.904-27.891 1.311-48.235 1.772-53.74l-16.772-1.738v129.83c1.075 3.08 1.818 6.231 3.003 9.283z" fill="#cfdfe6"/>
 </g>
</svg>
