<?xml version="1.0" encoding="UTF-8"?>
<svg fill="none" version="1.1" viewBox="0 0 512 512" xmlns="http://www.w3.org/2000/svg">
  <g transform="matrix(1.6254 0 0 1.6254 -6.5016 4e-6)">
    <rect x="4" width="315" height="315" rx="16" fill="#f7ead0"/>
    <g stroke="#d3967a">
      <line x1="21" x2="302" y1="16.5" y2="16.5"/>
      <line x1="21" x2="302" y1="36.5" y2="36.5"/>
      <line x1="21" x2="302" y1="56.5" y2="56.5"/>
      <line x1="21" x2="302" y1="76.5" y2="76.5"/>
      <line x1="21" x2="302" y1="96.5" y2="96.5"/>
      <line x1="21" x2="302" y1="116.5" y2="116.5"/>
      <line x1="21" x2="302" y1="136.5" y2="136.5"/>
      <line x1="21" x2="302" y1="156.5" y2="156.5"/>
      <line x1="21" x2="302" y1="176.5" y2="176.5"/>
      <line x1="21" x2="302" y1="196.5" y2="196.5"/>
      <line x1="21" x2="302" y1="216.5" y2="216.5"/>
      <line x1="21" x2="302" y1="236.5" y2="236.5"/>
      <line x1="21" x2="302" y1="256.5" y2="256.5"/>
      <line x1="21" x2="302" y1="276.5" y2="276.5"/>
      <line x1="21" x2="302" y1="296.5" y2="296.5"/>
      <line x1="301.5" x2="301.5" y1="17" y2="297"/>
      <line x1="281.5" x2="281.5" y1="17" y2="297"/>
      <line x1="261.5" x2="261.5" y1="17" y2="297"/>
      <line x1="241.5" x2="241.5" y1="17" y2="297"/>
      <line x1="221.5" x2="221.5" y1="17" y2="297"/>
      <line x1="201.5" x2="201.5" y1="17" y2="297"/>
      <line x1="181.5" x2="181.5" y1="17" y2="297"/>
      <line x1="161.5" x2="161.5" y1="17" y2="297"/>
      <line x1="141.5" x2="141.5" y1="17" y2="297"/>
      <line x1="121.5" x2="121.5" y1="17" y2="297"/>
      <line x1="101.5" x2="101.5" y1="17" y2="297"/>
      <line x1="81.5" x2="81.5" y1="17" y2="297"/>
      <line x1="61.5" x2="61.5" y1="17" y2="297"/>
      <line x1="41.5" x2="41.5" y1="17" y2="297"/>
      <line x1="21.5" x2="21.5" y1="17" y2="297"/>
    </g>
    <g fill="#d3967a">
      <circle cx="161.5" cy="156.5" r="4.5"/>
      <circle cx="81.5" cy="236.5" r="4.5"/>
      <circle cx="241.5" cy="236.5" r="4.5"/>
      <circle cx="241.5" cy="76.5" r="4.5"/>
      <circle cx="81.5" cy="76.5" r="4.5"/>
    </g>
    <path d="m4 299h315c0 8.837-7.163 16-16 16h-283c-8.8366 0-16-7.163-16-16z" fill="#e4b286"/>
    <path d="m4 299h315c0 6.075-4.925 11-11 11h-293c-6.0751 0-11-4.925-11-11z" fill="#f7ead0"/>
  </g>
</svg>
