<?xml version="1.0" encoding="UTF-8"?>
<svg version="1.1" viewBox="0 0 512 512" xmlns="http://www.w3.org/2000/svg">
 <g transform="translate(-409.9 10.078)">
  <path d="m587.02 137.41c-5.244 7.192-31.421 44.634-30.557 75.806l0.439 15.513 65.039-3.999z" fill="#3b3b3b"/>
  <path d="m796.66 199.73c-0.396-24.331-11.616-43.975-21.621-56.982-12.554-14.224-29.799-23.13-46.732-25.078l1.875 70.386 1.846 29.941 64.632-3.926z" fill="#2a2a2a"/>
  <path d="m739.94 124.33-0.146-0.483c-15.524-48.269-44.793-84.461-79.131-99.205-2.406-1.033-4.768-2.25-7.222-3.065-20.347-6.768-39.8-4.629-54.771 6.021-29.912 21.255-32.754 68.285-7.617 142.42 4.233 13.872 8.423 25.796 12.495 37.31 11.281 32.04 21.158 60.445 27.376 120.48-31.245-4.905-62.208 6.107-77.679 29.861l-18.091 26.426 11.528 8.628c19.356 14.425 45.604 19.658 69.36 11.44 1.523 23.921 13.052 46.582 33.149 61.479l11.47 8.505 22.324-30.346c20.424-27.583 18.206-71.127-10.345-96.914 37.582-33.887 62.791-79.545 71.547-130.27 5.978-28.872 4.469-61.641-4.247-92.285z" fill="#e6eef2"/>
  <path d="m682.98 443.8c20.424-27.583 18.206-71.127-10.345-96.914 37.582-33.887 62.791-79.545 71.547-130.27 5.977-28.872 4.468-61.641-4.248-92.285l-0.146-0.483c-15.525-48.269-44.794-84.461-79.132-99.205v449.5z" fill="#cfdfe6"/>
  <path d="m660.66 131.92c-1.075-3.08-1.818-6.231-3.003-9.283l-5.435-13.975-27.964 10.854 5.42 13.989c14.106 36.328 19.556 74.912 15.747 111.58l-1.538 14.927 16.773 1.738 13.066 1.353 1.553-14.912c3.957-38.296-1.348-78.226-14.619-116.27z" fill="#3b3b3b"/>
  <path d="m675.28 248.18c3.957-38.297-1.348-78.226-14.619-116.27v129.83l13.066 1.353z" fill="#2a2a2a"/>
 </g>
</svg>
