<svg viewBox="0 0 24 24" xmlns="http://www.w3.org/2000/svg">
  <path d="m11.999 2c-0.6497 1e-7 -1.3421 0.40062-1.6094 1.1054l0.75781-0.52341c-0.34127 1.711e-4 -0.64585 0.21415-0.76172 0.53513l-1.8984 5.2556c-0.00725 0.018787-0.020421 0.033516-0.037109 0.04492-0.016696 0.011411-0.036412 0.017645-0.056641 0.017577-6.5e-4 -8e-7 -0.0013-8e-7 -0.00195 0h-4.6777c-0.76809 0-1.4028 0.5189-1.623 1.1464-0.22022 0.62753-0.042475 1.4368 0.56641 1.9081l-0.046875-0.03906 3.3301 2.994c0.015093 0.01427 0.03073 0.02795 0.046875 0.04102 0.013624 0.01047 0.024516 0.0248 0.029297 0.04102 0.00473 0.01604 0.00373 0.03286-0.00195 0.04883-0.010042 0.02816-0.018519 0.05685-0.025391 0.08594l-1.2148 5.1502 0.025391-0.08594c-0.26663 0.74422 0.047033 1.5367 0.58984 1.9394 0.54281 0.40269 1.3805 0.47726 2.0254 0.02344l-0.033203 0.02344 4.5234-2.869c0.01058-0.0069 0.021-0.01408 0.03125-0.02148 0.01856-0.01304 0.03984-0.01953 0.0625-0.01953 0.02264 0 0.04588 0.0065 0.06445 0.01953 0.01025 0.0074 0.02067 0.01457 0.03125 0.02148l4.5215 2.869-0.03125-0.02148c0.64482 0.45321 1.4804 0.37739 2.0234-0.02539 0.54301-0.40278 0.85806-1.1954 0.5918-1.9394l0.02539 0.08594-1.2168-5.1502c-0.0062-0.02905-0.01406-0.05774-0.02344-0.08594-0.0057-0.01595-0.0067-0.03291-2e-3 -0.04883 1e-6 -6.67e-4 1e-6 -0.0013 0-2e-3 0.0048-0.01613 0.01374-0.0286 0.02734-0.03906 0.01681-0.01303 0.0331-0.02671 0.04883-0.04102l3.3281-2.994-0.04492 0.03711c0.60818-0.47144 0.78649-1.2784 0.56641-1.9062-0.22008-0.62775-0.85671-1.1464-1.625-1.1464h-4.6777c-0.0466 0-0.08052-0.02771-0.09375-0.060544h-0.0019l-1.8984-5.2576c-0.0013-0.00457-0.0026-0.00913-0.0039-0.013671-0.26799-0.70442-0.95969-1.1035-1.6094-1.1035zm0 1.621c0.05321 0 0.06782-0.00936 0.09375 0.056639l1.9004 5.2615c0.0013 0.00457 0.0026 0.00913 0.0039 0.013671 0.25391 0.66523 0.89888 1.1035 1.6094 1.1035h4.6777c0.09617 0 0.08105 0.01875 0.0957 0.06055s0.04214 0.03642-0.0293 0.0918c-0.01607 0.01179-0.03171 0.02417-0.04687 0.03711l-3.3281 2.994 0.04883-0.03906c-0.28472 0.21884-0.49414 0.52251-0.5957 0.86715-0.10178 0.34467-0.0912 0.71235 0.0293 1.0507l-0.02539-0.08594 1.2168 5.1521c0.0069 0.02909 0.01535 0.05778 0.02539 0.08594 0.02986 0.08344 0.01201 0.0597-0.03125 0.0918-0.04326 0.03209-0.04709 0.05808-0.12695 2e-3 -0.01089-0.0074-0.02196-0.01459-0.0332-0.02148l-4.5215-2.869 0.03125 0.02148c-0.29116-0.20448-0.63826-0.31444-0.99414-0.31444-0.35587 0-0.70297 0.10994-0.99414 0.31444l0.03125-0.02148-4.5215 2.869c-0.010583 0.0069-0.021002 0.01408-0.03125 0.02148-0.078901 0.05553-0.083258 0.03046-0.12695-2e-3 -0.043695-0.03242-0.060742-0.0095-0.03125-0.0918 0.010042-0.02816 0.018519-0.05685 0.025391-0.08594l1.2148-5.1521-0.025391 0.08594c0.12044-0.33838 0.13097-0.7062 0.029297-1.0507-0.1016-0.34456-0.30913-0.64833-0.59375-0.86715l0.046875 0.03906-3.3281-2.994c-0.014524-0.0129-0.029508-0.02528-0.044922-0.03711-0.071653-0.05547-0.045995-0.04782-0.03125-0.08984s0.00117-0.0625 0.095703-0.0625h4.6777c0.34751 7.82e-4 0.68575-0.10469 0.97266-0.30076 0.28744-0.19643 0.5094-0.47592 0.63477-0.80075 0.00201-0.00519 0.00396-0.010396 0.00586-0.015624l1.7022-4.7309-0.31628 0.22428c0.32601 0.00564 0.36966-0.4289 0.51442-0.75293 0.02699-0.071172 0.03923-0.058592 0.09375-0.058592z" />
</svg>
