<svg viewBox="0 0 24 24" xmlns="http://www.w3.org/2000/svg">
  <path d="m11.992 2c-0.51006 0-0.83517 0.013351-1.0692 0.051664s-0.37677 0.096792-0.55644 0.20467c-0.3123 0.1875-0.4067 0.2786-0.60016 0.57427-0.18134 0.27715-0.2582 0.51278-0.30405 0.96771-0.01907 0.18918-0.04369 0.33176-0.10533 0.45902-0.06164 0.12726-0.15822 0.22238-0.27822 0.31197-0.11761 0.087883-0.26604 0.1232-0.44316 0.1232-0.1981 0-0.34582-0.051146-0.48887-0.16692-0.47105-0.38125-0.54683-0.43181-0.74721-0.51267-0.17933-0.072382-0.25408-0.082672-0.67567-0.083457-0.5015-9.455e-4 -0.43837-0.014834-0.76907 0.14307-0.14586 0.069646-0.22652 0.11617-0.36367 0.2305-0.13715 0.11433-0.3289 0.29799-0.65779 0.62593-0.33181 0.33085-0.51636 0.5198-0.62996 0.65574-0.11361 0.13594-0.15758 0.21655-0.22854 0.36562-0.15893 0.33343-0.14507 0.27191-0.14507 0.77298 0 0.49599-0.011102 0.44216 0.13712 0.75112 0.074238 0.15473 0.23385 0.39753 0.31995 0.4928 0.15992 0.17695 0.26862 0.33071 0.31001 0.50671 0.041397 0.17599 0.00123 0.3536-0.083465 0.52856-0.14113 0.29153-0.44555 0.45747-0.79689 0.461-0.44069 0.00473-1.003 0.24101-1.2897 0.53651-0.19875 0.20482-0.40024 0.57634-0.46303 0.85246-0.037985 0.16696-0.065984 0.68746-0.063593 1.1843 0.00239 0.49685 0.037484 1.0144 0.073529 1.1525 0.073446 0.28137 0.28185 0.64496 0.46701 0.82464 0.31122 0.30203 0.86493 0.52459 1.3036 0.52459 0.32986 0 0.63046 0.17267 0.76907 0.45902 0.083265 0.17201 0.12433 0.3424 0.085452 0.51465-0.038879 0.17225-0.14329 0.32247-0.29809 0.49677-0.36433 0.41024-0.49391 0.74531-0.49483 1.2737-6.584e-4 0.37536 0.094711 0.70013 0.29213 0.99752 0.019355 0.02916 0.13611 0.1684 0.28219 0.32588 0.14608 0.15748 0.32892 0.34701 0.51271 0.52856 0.29737 0.29374 0.47476 0.46275 0.60612 0.57029 0.13135 0.10754 0.21388 0.15483 0.35572 0.22255 0.32848 0.15718 0.26825 0.14307 0.77106 0.14307 0.50359 0 0.43859 0.01535 0.7492-0.1391 0.15558-0.07736 0.39918-0.23788 0.49682-0.32389 0.1818-0.16016 0.34713-0.26836 0.52861-0.308 0.18149-0.03964 0.36368 0.0044 0.53259 0.09936 0.27447 0.15428 0.42925 0.45216 0.42925 0.78887 0 0.80099 0.56838 1.5348 1.3494 1.7387 0.14572 0.03804 0.67899 0.07353 1.1884 0.07353 0.5094 0 1.0427-0.03549 1.1884-0.07353 0.28133-0.07345 0.64504-0.28181 0.82472-0.46696 0.30116-0.31036 0.52662-0.864 0.52662-1.2996 0-0.26882 0.10887-0.503 0.31399-0.67561 0.16179-0.13612 0.35515-0.209 0.55246-0.19076 0.19731 0.01824 0.38484 0.11754 0.56836 0.27422 0.51225 0.43737 0.78454 0.53856 1.3812 0.51664 0.38246-0.01406 0.39097-0.01436 0.69554-0.15897 0.14886-0.07067 0.22778-0.1153 0.36367-0.22852 0.13589-0.11322 0.32595-0.29806 0.6558-0.62792 0.32911-0.32912 0.51238-0.5175 0.62599-0.65375 0.11361-0.13625 0.15773-0.21718 0.22854-0.36562 0.1593-0.3337 0.14507-0.27161 0.14507-0.77298 0-0.49599 0.01309-0.44216-0.13513-0.75112-0.07423-0.15473-0.23384-0.39753-0.31995-0.4928-0.15992-0.17695-0.26862-0.33072-0.31001-0.50671-0.0414-0.17599-0.0012-0.3536 0.08346-0.52856 0.13861-0.28634 0.43921-0.45902 0.76907-0.45902 0.43872 0 0.99044-0.22256 1.3017-0.52459 0.18515-0.17968 0.39356-0.54326 0.46701-0.82464 0.03804-0.14573 0.07353-0.68084 0.07353-1.1903s-0.03549-1.0425-0.07353-1.1883c-0.20669-0.79182-0.93749-1.3492-1.7766-1.3492-0.34528 0-0.62846-0.19422-0.76311-0.45703-0.13464-0.26281-0.12167-0.60352 0.093406-0.86836 0.37045-0.45618 0.42629-0.5359 0.50079-0.73323 0.17984-0.4762 0.15562-1.0061-0.06558-1.4724-0.064344-0.13564-0.10806-0.21532-0.22257-0.35171-0.11451-0.13639-0.2991-0.32486-0.62201-0.64779-0.32912-0.32913-0.51955-0.5143-0.6558-0.62792-0.13625-0.11361-0.21523-0.15771-0.36367-0.22851-0.33367-0.1593-0.27171-0.14506-0.77305-0.14506-0.49596 0-0.44225-0.013108-0.75119 0.13512-0.15471 0.074224-0.39955 0.23382-0.49483 0.31992-0.17989 0.16259-0.34432 0.27317-0.52663 0.31396-0.18231 0.04079-0.36831-0.00169-0.53855-0.097367-0.2727-0.15328-0.42569-0.45165-0.42925-0.78688-0.0073-0.68122-0.41197-1.3213-1.0175-1.6175-0.17688-0.086534-0.29943-0.13065-0.51272-0.15897-0.21328-0.028313-0.51746-0.037755-1.0155-0.037755zm0.0079 1.0015c0.22693 0 0.45493 0.00683 0.64189 0.019871 0.09348 0.00652 0.17558 0.015332 0.24642 0.025832 0.07084 0.010501 0.12462 0.017253 0.18879 0.04769 0.1407 0.066774 0.26088 0.16703 0.33386 0.308 0.07297 0.14097 0.10288 0.3081 0.12321 0.52856 0.07223 0.78287 0.39192 1.2676 1.0274 1.5817 0.68074 0.33648 1.4542 0.23269 2.0071-0.26428 0.06166-0.055418 0.12694-0.11024 0.1868-0.15698 0.05986-0.04674 0.10567-0.081139 0.15898-0.10929 0.11674-0.061737 0.24131-0.074027 0.37162-0.071534 0.13031 0.00249 0.26024 0.020954 0.37559 0.08147 0.05411 0.028384 0.07906 0.053872 0.1252 0.093393 0.04614 0.039521 0.10116 0.089227 0.16296 0.14704 0.1236 0.11563 0.27314 0.26221 0.4213 0.41133 0.14816 0.14912 0.2944 0.30074 0.40938 0.42524 0.05749 0.062246 0.10774 0.11843 0.14706 0.16493 0.03933 0.0465 0.06349 0.071531 0.09141 0.12519 0.05989 0.11508 0.06973 0.23661 0.06956 0.36364-1.73e-4 0.12702-0.0087 0.24865-0.06956 0.36364-0.02812 0.053219-0.06456 0.097125-0.11129 0.15698-0.04673 0.059855-0.10158 0.12711-0.15699 0.18877-0.50094 0.5574-0.60142 1.3247-0.25835 2.0189 0.30854 0.62429 0.79741 0.94119 1.5799 1.0134 0.21864 0.02018 0.38418 0.05215 0.52464 0.12519 0.14046 0.07304 0.24135 0.19334 0.30803 0.33383 0.03042 0.06416 0.03719 0.11594 0.04769 0.18679 0.0105 0.07084 0.01932 0.15491 0.02583 0.24838 0.01305 0.18696 0.01987 0.4129 0.01987 0.63984s-0.0068 0.45486-0.01987 0.64183c-0.0065 0.09349-0.01533 0.17556-0.02583 0.2464-0.01049 0.07084-0.01726 0.12462-0.04769 0.18877-0.06668 0.1405-0.16757 0.2608-0.30803 0.33383-0.14046 0.07303-0.30601 0.103-0.52464 0.1232-0.1909 0.0176-0.45294 0.06843-0.52066 0.0914-1.2519 0.42505-1.6713 1.9744-0.80087 2.9429 0.05541 0.06165 0.11025 0.12891 0.15699 0.18877 0.04674 0.05986 0.08313 0.10366 0.11129 0.15698 0.0607 0.11497 0.06938 0.23662 0.06956 0.36364 1.73e-4 0.12701-0.0097 0.24856-0.06956 0.36364-0.02741 0.05262-0.0517 0.07652-0.08943 0.12121-0.03773 0.04469-0.08391 0.09708-0.13911 0.15698-0.11039 0.1198-0.25196 0.26643-0.39547 0.41133-0.14351 0.1449-0.28892 0.28807-0.41136 0.40338-0.12244 0.11531-0.20224 0.19231-0.28617 0.24441-0.11713 0.0727-0.25301 0.10186-0.3895 0.10929-0.1365 0.0074-0.27109-0.0048-0.39348-0.06955-0.0532-0.02812-0.09913-0.06256-0.15898-0.10929-0.05985-0.04673-0.12514-0.10157-0.1868-0.15698-0.55295-0.49698-1.3264-0.60076-2.0071-0.26428-0.6355 0.31412-0.95521 0.79885-1.0274 1.5817-0.02034 0.22046-0.05023 0.3876-0.12321 0.52856-0.05128 0.09906-0.14565 0.15505-0.2345 0.21659v0.04372l-0.09937 0.04768c-0.06457 0.03053-0.11765 0.0373-0.18879 0.04769-0.07114 0.01039-0.15633 0.01942-0.2504 0.02583-0.18813 0.0128-0.41559 0.0181-0.64387 0.01789-0.22829-2.14e-4 -0.45657-0.0067-0.64388-0.01987-0.09365-0.0066-0.1758-0.01525-0.24642-0.02583-0.07063-0.01058-0.12321-0.01736-0.18879-0.04968-0.13796-0.068-0.25456-0.16779-0.32591-0.308-0.07135-0.1402-0.10304-0.30606-0.12321-0.52459-0.01745-0.18899-0.07438-0.47311-0.11129-0.57824-0.42391-1.2077-1.9666-1.6002-2.9213-0.74118-0.06166 0.05549-0.12893 0.11218-0.18879 0.15897-0.05986 0.04679-0.10359 0.0811-0.15699 0.10929-0.11499 0.06082-0.23665 0.07136-0.36367 0.07153-0.12702 1.73e-4 -0.24858-0.0097-0.36367-0.06955-0.05363-0.02793-0.0787-0.05407-0.1252-0.0934-0.04649-0.03931-0.10269-0.08953-0.16494-0.14703-0.12443-0.11498-0.27412-0.25918-0.42323-0.40735-0.14911-0.14817-0.29573-0.29965-0.41136-0.42325-0.057815-0.0618-0.10952-0.11679-0.14904-0.16294-0.039521-0.04615-0.063037-0.07109-0.091414-0.12519-0.060508-0.11534-0.078985-0.24326-0.081478-0.37357-0.00249-0.13031 0.00783-0.25684 0.069554-0.37357 0.028127-0.05322 0.062569-0.09713 0.1093-0.15698 0.046731-0.05985 0.10356-0.12711 0.15898-0.18877 0.49964-0.55596 0.59926-1.3251 0.25834-2.0149-0.31188-0.63106-0.79356-0.94702-1.5779-1.0194-0.22045-0.020348-0.38566-0.050218-0.52663-0.1232-0.14097-0.072977-0.24324-0.19312-0.31001-0.33383-0.030432-0.06416-0.037195-0.11793-0.047694-0.18877-0.010499-0.07083-0.017325-0.15291-0.023847-0.2464-0.013045-0.18696-0.019873-0.41489-0.019873-0.64183s0.00683-0.45288 0.019872-0.63984c0.00652-0.09348 0.013348-0.17754 0.023847-0.24838s0.017263-0.12263 0.047694-0.18679c0.066769-0.14071 0.16904-0.26084 0.31001-0.33383 0.14097-0.07299 0.30616-0.10486 0.52663-0.12519 0.78127-0.07209 1.2676-0.38963 1.5799-1.0214 0.33502-0.67784 0.23233-1.4634-0.26033-2.0109-0.055481-0.061663-0.1122-0.12891-0.15898-0.18877-0.046389-0.059357-0.081239-0.10418-0.1093-0.15698-0.06081-0.11498-0.071366-0.23662-0.071542-0.36364-1.76e-4 -0.12702 0.0096583-0.24856 0.069554-0.36364 0.027916-0.053628 0.054077-0.078688 0.093402-0.12519 0.039324-0.046499 0.089566-0.10268 0.14706-0.16493 0.11498-0.12449 0.26122-0.27612 0.40938-0.42524 0.14816-0.14912 0.29771-0.29569 0.4213-0.41133 0.061798-0.057818 0.11681-0.10752 0.16296-0.14704 0.04615-0.039522 0.0711-0.065009 0.1252-0.093393 0.11535-0.060515 0.2433-0.078975 0.37361-0.08147 0.13031-0.00249 0.25687 0.00981 0.37361 0.071534 0.0533 0.028172 0.09714 0.062508 0.157 0.10929 0.05986 0.04678 0.12712 0.10149 0.18879 0.15698 0.54943 0.4944 1.3313 0.59825 2.0151 0.26031 0.61759-0.30524 0.94833-0.81487 1.0195-1.5956 0.01928-0.2116 0.05193-0.37607 0.1252-0.51465 0.07327-0.13858 0.19208-0.23769 0.33187-0.30402 0.06416-0.030437 0.11597-0.03719 0.1868-0.04769 0.07084-0.010501 0.15493-0.019311 0.24841-0.025832 0.18696-0.013043 0.41297-0.01987 0.6399-0.01987zm2e-3 4.459c-0.3532-1.89e-5 -0.70758 0.012767-0.83465 0.039742-0.37771 0.080223-0.88141 0.25326-1.1864 0.40536-2.5013 1.2475-3.3079 4.3318-1.7448 6.6826 0.23586 0.3547 0.82177 0.94048 1.1765 1.1764 0.57266 0.38082 1.3403 0.67828 1.9753 0.76701 0.33288 0.04653 1.215 0.01333 1.5302-0.05564 1.6923-0.37034 3.0014-1.5877 3.4678-3.2191 0.74148-2.5938-0.84904-5.1768-3.5532-5.7566-0.12547-0.0269-0.47748-0.039723-0.83068-0.039742zm-0.07552 0.97963c0.41093-0.0088 0.83216 0.053739 1.25 0.19871 1.8133 0.62915 2.8002 2.6065 2.2138 4.4372-0.35656 1.1131-1.1992 1.955-2.3172 2.315l-0.22854 0.07353v-0.07749c-0.68092 0.16768-1.4322 0.19588-2.0827-0.04572-1.4665-0.54468-2.4108-2.0009-2.3112-3.5628 0.11251-1.7647 1.4607-3.0837 3.0683-3.3065 0.13397-0.018567 0.27041-0.028859 0.40739-0.031793z"/>
</svg>
