<svg viewBox="0 0 24 24" xmlns="http://www.w3.org/2000/svg">
  <path d="m11.999 7c-2.4605 0.0025108-4.8337 0.91171-6.6654 2.5547a1 1.0001 0 0 0-0.00195 0.00195l-2.9997 2.6992a0.99991 1 0 0 0-0.074212 1.4141 0.99991 1 0 0 0 1.4139 0.07422l2.9978-2.6992 0.00195-2e-3c1.4649-1.3131 3.3623-2.0404 5.3296-2.0429 2.1219 0 4.1552 0.84321 5.6557 2.3438 1.5004 1.5006 2.3435 3.5342 2.3435 5.6562a0.99991 1 0 0 0 0.99991 1 0.99991 1 0 0 0 0.99991-1c0-2.6517-1.0545-5.1952-2.9294-7.0703-1.875-1.875-4.4182-2.9297-7.0697-2.9297a1 1.0001 0 0 0-2e-3 0zm-8.9972-1a0.99991 1 0 0 0-0.99991 1v6a1 1.0001 0 0 0 0.99991 1h5.9995a0.99991 1 0 0 0 0.99991-1 0.99991 1 0 0 0-0.99991-1h-4.9996v-5a0.99991 1 0 0 0-0.99991-1z" />
</svg>
