<svg viewBox="0 0 24 24" xmlns="http://www.w3.org/2000/svg">
  <path d="m5.0489 3.3515c-0.46863-0.46861-1.2285-0.4687-1.6973-2.4e-4 -0.46875 0.46849-0.46886 1.2281-2.28e-4 1.6967l6.9521 6.952-6.9521 6.952c-0.46863 0.46863-0.46852 1.2283 2.28e-4 1.6967 0.46875 0.46851 1.2286 0.46839 1.6973-2.4e-4l6.9516-6.9515 6.9506 6.9504c0.46865 0.46863 1.2285 0.46875 1.6972 2.4e-4s0.46889-1.2281 2.4e-4 -1.6967l-6.9511-6.9509 6.9511-6.9508c0.46865-0.46861 0.46853-1.2283-2.4e-4 -1.6967-0.46877-0.46848-1.2286-0.46838-1.6972 2.28e-4l-6.9506 6.9504z" />
</svg>
