<svg fill="none" version="1.1" viewBox="0 0 100 100" xmlns="http://www.w3.org/2000/svg">
  <g>
    <rect x="3" y="3" width="94" height="94" rx="3.76" fill="#ca9e77" stroke-width="1.88"/>
    <rect x="3" y="3" width="94" height="92" rx="3.76" fill="#f7ead0" stroke-width="1.8599"/>
  </g>
  <g transform="translate(-3.5346 -.39945)" filter="url(#filter0_d)">
    <circle cx="54.5" cy="49.5" r="3.5" fill="#d3967a"/>
    <g stroke="#d3967a">
      <line x1="93.5" x2="93.5" y1="10" y2="90"/>
      <line x1="74.5" x2="74.5" y1="10" y2="90"/>
      <line x1="54.5" x2="54.5" y1="10" y2="90"/>
      <line x1="34.5" x2="34.5" y1="10" y2="90"/>
      <line x1="14.5" x2="14.5" y1="10" y2="90"/>
      <line x1="14" x2="94" y1="10.5" y2="10.5"/>
      <line x1="14" x2="94" y1="29.5" y2="29.5"/>
      <line x1="14" x2="94" y1="49.5" y2="49.5"/>
      <line x1="14" x2="94" y1="69.5" y2="69.5"/>
      <line x1="14" x2="94" y1="89.5" y2="89.5"/>
    </g>
  </g>
  <g transform="translate(-3.5346 -.39945)" filter="url(#filter1_d)">
    <circle cx="34" cy="70" r="10" fill="url(#paint0_radial)"/>
  </g>
  <g transform="translate(-3.5346 -.39945)" filter="url(#filter2_d)">
    <circle cx="74" cy="30" r="10" fill="url(#paint1_radial)"/>
  </g>
  <g transform="translate(-3.5346 -.39945)" filter="url(#filter0_d)">
    <path d="m25.006 25.941-6.7583-5.7182-1.3549 1.4173c-2.2594 2.4419-3.0064 5.4433-3.2465 7.6739-0.1031 2.5918 0.7598 5.1011 2.2492 6.8934z" fill="#e6eef2"/>
    <path d="m43.328 41.427-6.8069-5.7507-5.166 11.134c1.4154 0.3251 7.2792-0.2008 10.548-3.8085z" fill="#cfdfe6"/>
    <path d="m59.825 26.193c-0.5034-3.0346-2.3046-5.721-4.8617-7.201-0.3236-0.1956-0.6457-0.3334-0.9681-0.4712 2.1475-2.5432 3.1465-5.8439 2.5773-9.2251l-0.3317-1.9088-5.0296 0.86899c-3.3814 0.56943-5.8782 3.0624-7.0772 5.2072-0.8935 1.5684-1.2895 3.4462-1.1175 5.3918-6.9033-0.1971-13.695 1.8953-19.343 6.0743-3.3183 2.2887-6.265 5.6697-8.2987 9.5216l-0.0312 0.0615c-2.6551 5.4727-3.8188 12.405-1.6685 17.402 0.561 1.3039 1.289 2.5128 2.3267 3.5048 1.1668 1.1154 2.5623 1.8205 4.0944 2.0438 4.9642 0.7253 9.79-3.7606 14.31-13.462 0.8922-1.7708 1.6046-3.3451 2.2899-4.8677 1.9162-4.2412 3.6289-7.9901 8.7116-14.537 0.3956 0.5212 0.7358 1.0573 1.2462 1.5453 2.5796 2.4659 6 3.6362 9.2035 2.8967l4.2729-0.9086z" fill="#3b3b3b"/>
    <path d="m20.096 57.463c4.9641 0.7254 9.79-3.7606 14.31-13.462 0.8922-1.7708 1.6046-3.3451 2.2899-4.8676 1.9162-4.2413 3.6288-7.9902 8.7115-14.537 0.3957 0.5212 0.7359 1.0573 1.2463 1.5453 2.5796 2.4659 6 3.6362 9.2035 2.8967l4.2729-0.9086-0.3048-1.9367c-0.5034-3.0346-2.3046-5.721-4.8618-7.2009-0.3235-0.1956-0.6456-0.3335-0.968-0.4713 2.1474-2.5432 3.1465-5.8438 2.5772-9.2251l-0.3314-1.9086-42.566 44.528c0.5609 1.3039 1.2889 2.5128 2.3266 3.5048 1.1668 1.1153 2.5624 1.8206 4.0944 2.0437z" fill="#2a2a2a"/>
    <path d="m27.138 43.961c1.329-3.2099 3.1501-6.1267 5.2949-8.7008 2.4468-2.9363 4.6865-4.6431 5.2522-5.1436l-1.4934-1.7563-1.1634-1.3681-1.5623 1.327c-4.0091 3.411-7.257 7.8582-9.5396 12.872-0.1848 0.4059-0.409 0.7875-0.5803 1.2011l-0.7831 1.8946 0.8892 0.3683 2.8998 1.2008z" fill="#e6eef2"/>
    <path d="m22.564 44.287 0.8892 0.3683 2.8998 1.2008 0.7859-1.8945c1.329-3.2101 3.1501-6.1269 5.2949-8.701 2.4468-2.9363 4.6865-4.6431 5.2522-5.1436l-1.4934-1.7563-12.265 12.831c-0.1848 0.4059-0.409 0.7875-0.5803 1.2011z" fill="#cfdfe6"/>
  </g>
  <g transform="translate(-3.5346 -.39945)" filter="url(#filter0_d)">
    <path d="m76.752 52.391c-1.203 0.184-7.3572 1.251-10.298 4.3376l-1.4628 1.5369 6.6531 5.9249z" fill="#3b3b3b"/>
    <path d="m90.9 78.734c2.3224-2.3822 3.1475-5.363 3.4457-7.5866 0.1707-2.5882-0.6264-5.1192-2.0685-6.9497l-6.6483 6.962-2.7271 3.0633 6.6068 5.8924z" fill="#2a2a2a"/>
    <path d="m92.752 65.968 0.0328-0.0607c3.1877-6.1558 3.8796-12.482 2.0024-17.234-0.1315-0.333-0.241-0.6794-0.3983-0.996-1.3034-2.626-3.3848-4.3073-5.8601-4.7339-4.9436-0.8546-9.7802 3.3999-14.551 12.98-0.9382 1.747-1.6914 3.3021-2.4163 4.8063-2.0218 4.1808-3.8263 7.8753-9.0519 14.262-2.5339-3.5039-6.5849-5.4472-10.38-4.66l-4.3065 0.7903 0.2733 1.9496c0.465 3.2674 2.4857 6.3181 5.5714 7.8313-2.1741 2.452-3.2621 5.7535-2.7715 9.1383l0.2797 1.9321 5.0946-0.7573c4.6435-0.6755 8.6545-5.0851 8.4061-10.339 6.9079 0.382 13.766-1.5704 19.531-5.6071 3.377-2.2012 6.4109-5.5041 8.5444-9.3016z" fill="#e6eef2"/>
    <path d="m56.27 91.215c4.6435-0.6754 8.6545-5.0851 8.4061-10.339 6.9079 0.382 13.766-1.5703 19.531-5.607 3.377-2.2013 6.4109-5.5043 8.5444-9.3018l0.0328-0.0607c3.1876-6.1559 3.8795-12.482 2.0023-17.234l-43.611 43.299z" fill="#cfdfe6"/>
    <path d="m84.378 59.007c0.1953-0.4009 0.4294-0.7766 0.6114-1.1855l0.8323-1.8735-3.7467-1.6676-0.8352 1.8734c-2.1657 4.868-5.3842 9.1135-9.3087 12.276l-1.5963 1.2886 1.4471 1.7948 1.1273 1.398 1.5964-1.2858c4.0966-3.305 7.4597-7.6661 9.8723-12.618z" fill="#3b3b3b"/>
    <path d="m74.507 71.625c4.0967-3.3051 7.4596-7.6661 9.8723-12.618l-12.596 12.506 1.1274 1.398z" fill="#2a2a2a"/>
  </g>
  <defs>
    <filter id="filter0_d" x="0" y="0" width="108" height="108" color-interpolation-filters="sRGB" filterUnits="userSpaceOnUse">
      <feFlood flood-opacity="0" result="BackgroundImageFix"/>
      <feColorMatrix in="SourceAlpha" result="hardAlpha" values="0 0 0 0 0 0 0 0 0 0 0 0 0 0 0 0 0 0 127 0"/>
      <feOffset dy="4"/>
      <feGaussianBlur stdDeviation="2"/>
      <feComposite in2="hardAlpha" operator="out"/>
      <feColorMatrix values="0 0 0 0 0 0 0 0 0 0 0 0 0 0 0 0 0 0 0.13 0"/>
      <feBlend in2="BackgroundImageFix" result="effect1_dropShadow"/>
      <feBlend in="SourceGraphic" in2="effect1_dropShadow" result="shape"/>
    </filter>
    <filter id="filter1_d" x="19" y="57" width="30" height="30" color-interpolation-filters="sRGB" filterUnits="userSpaceOnUse">
      <feFlood flood-opacity="0" result="BackgroundImageFix"/>
      <feColorMatrix in="SourceAlpha" result="hardAlpha" values="0 0 0 0 0 0 0 0 0 0 0 0 0 0 0 0 0 0 127 0"/>
      <feMorphology in="SourceAlpha" operator="dilate" radius="1" result="effect1_dropShadow"/>
      <feOffset dy="2"/>
      <feGaussianBlur stdDeviation="2"/>
      <feComposite in2="hardAlpha" operator="out"/>
      <feColorMatrix values="0 0 0 0 0 0 0 0 0 0 0 0 0 0 0 0 0 0 0.2 0"/>
      <feBlend in2="BackgroundImageFix" result="effect1_dropShadow"/>
      <feBlend in="SourceGraphic" in2="effect1_dropShadow" result="shape"/>
    </filter>
    <filter id="filter2_d" x="60" y="18" width="28" height="28" color-interpolation-filters="sRGB" filterUnits="userSpaceOnUse">
      <feFlood flood-opacity="0" result="BackgroundImageFix"/>
      <feColorMatrix in="SourceAlpha" result="hardAlpha" values="0 0 0 0 0 0 0 0 0 0 0 0 0 0 0 0 0 0 127 0"/>
      <feOffset dy="2"/>
      <feGaussianBlur stdDeviation="2"/>
      <feComposite in2="hardAlpha" operator="out"/>
      <feColorMatrix values="0 0 0 0 0.895833 0 0 0 0 0.895833 0 0 0 0 0.895833 0 0 0 0.2 0"/>
      <feBlend in2="BackgroundImageFix" result="effect1_dropShadow"/>
      <feBlend in="SourceGraphic" in2="effect1_dropShadow" result="shape"/>
    </filter>
    <radialGradient id="paint0_radial" cx="0" cy="0" r="1" gradientTransform="matrix(13.6 14.4 -14.4 13.6 30.4 65.6)" gradientUnits="userSpaceOnUse">
      <stop stop-color="#777" offset="0"/>
      <stop stop-color="#4B4B4B" offset=".5625"/>
      <stop stop-color="#292929" offset="1"/>
    </radialGradient>
    <radialGradient id="paint1_radial" cx="0" cy="0" r="1" gradientTransform="matrix(13.6 14.4 -14.4 13.6 70.4 25.6)" gradientUnits="userSpaceOnUse">
      <stop stop-color="#FEFEFE" offset=".14062"/>
      <stop stop-color="#E0E0E0" offset="1"/>
    </radialGradient>
  </defs>
</svg>
